<?xml version="1.0" encoding="utf-8"?>
<!-- Generator: Adobe Illustrator 28.0.0, SVG Export Plug-In . SVG Version: 6.00 Build 0)  -->
<svg version="1.1" id="Camada_1" xmlns="http://www.w3.org/2000/svg" xmlns:xlink="http://www.w3.org/1999/xlink" x="0px" y="0px"
	 viewBox="0 0 110 110" style="enable-background:new 0 0 110 110;" xml:space="preserve">
<style type="text/css">
	.st0{fill:#00A884;}
	.st1{fill:#FFFFFF;}
	.st2{fill:#FF321F;}
</style>
<circle class="st0" cx="55" cy="59.8" r="50.2"/>
<path class="st1" d="M72.9,41c-4.9-4.9-11.4-7.6-18.2-7.6c-14.2,0-25.8,11.6-25.8,25.8c0,4.5,1.2,9,3.4,12.9l-3.7,13.4l13.7-3.6
	c3.8,2.1,8,3.1,12.3,3.1h0c14.2,0,26-11.6,26-25.8C80.7,52.4,77.8,45.9,72.9,41z M54.6,80.7c-3.9,0-7.6-1-10.9-3l-0.8-0.5l-8.1,2.1
	l2.2-7.9l-0.5-0.8c-2.2-3.4-3.3-7.4-3.3-11.4c0-11.8,9.6-21.4,21.5-21.4c5.7,0,11.1,2.2,15.2,6.3c4,4.1,6.5,9.4,6.5,15.2
	C76.3,71.1,66.5,80.7,54.6,80.7z M66.4,64.6c-0.6-0.3-3.8-1.9-4.4-2.1c-0.6-0.2-1-0.3-1.5,0.3c-0.4,0.7-1.7,2.1-2,2.5
	c-0.4,0.4-0.8,0.5-1.4,0.2c-3.8-1.9-6.3-3.4-8.8-7.7c-0.7-1.1,0.7-1.1,1.9-3.5c0.2-0.4,0.1-0.8-0.1-1.1c-0.2-0.3-1.5-3.5-2-4.8
	c-0.5-1.3-1.1-1.1-1.5-1.1c-0.4,0-0.8,0-1.2,0c-0.4,0-1.1,0.2-1.7,0.8c-0.6,0.7-2.3,2.2-2.3,5.4s2.3,6.2,2.6,6.7
	c0.3,0.4,4.5,6.9,11,9.7c4.1,1.8,5.7,1.9,7.7,1.6c1.2-0.2,3.8-1.6,4.3-3.1c0.5-1.5,0.5-2.8,0.4-3.1C67.5,65.1,67,65,66.4,64.6z"/>
<g>
	<circle class="st2" cx="87.4" cy="14" r="14"/>
	<g>
		<path class="st1" d="M89.5,21.7h-2.9v-11c-1.1,1-2.3,1.7-3.8,2.2v-2.6c0.8-0.2,1.6-0.7,2.5-1.4c0.9-0.7,1.5-1.5,1.8-2.4h2.4V21.7z
			"/>
	</g>
</g>
</svg>
