<?xml version="1.0" encoding="utf-8"?>
<!-- Generator: Adobe Illustrator 28.0.0, SVG Export Plug-In . SVG Version: 6.00 Build 0)  -->
<svg version="1.1" id="Capa_1" xmlns="http://www.w3.org/2000/svg" xmlns:xlink="http://www.w3.org/1999/xlink" x="0px" y="0px"
	 viewBox="0 0 512 345.4" style="enable-background:new 0 0 512 345.4;" xml:space="preserve">
<style type="text/css">
	.st0{fill:#F7E365;}
	.st1{fill:#F7F7F7;}
	.st2{fill:#E8E8E8;}
	.st3{fill:#544F56;}
	.st4{fill:#8C818F;}
	.st5{fill:#766D78;}
	.st6{fill:#D9D9D9;}
	.st7{fill:#F5DE46;}
	.st8{fill:#F3D332;}
	.st9{fill:#444145;}
	.st10{fill:#DF6937;}
</style>
<g>
	<g>
		<g>
			<path class="st0" d="M491.9,155.2c-6.9,0-12.5-5.6-12.5-12.5V83.2l17.6,5.9c4.4,1.5,7.4,5.6,7.4,10.3v43.3
				C504.5,149.5,498.9,155.2,491.9,155.2L491.9,155.2z"/>
		</g>
	</g>
	<g>
		<g>
			<path class="st1" d="M449.9,289.1H27.2c-10.8,0-19.6-8.8-19.6-19.6V81c0-10.8,8.8-19.6,19.6-19.6h400.5c9.4,0,17.4,6.9,18.8,16.2
				l17.8,119.7v77.4C464.2,282.7,457.8,289.1,449.9,289.1L449.9,289.1z"/>
		</g>
	</g>
	<g>
		<g>
			<path class="st2" d="M446.4,77.6c-1.4-9.3-9.4-16.2-18.8-16.2h-30.1c9.4,0,17.4,6.9,18.8,16.2l17.8,119.7v77.4
				c0,7.9-6.4,14.3-14.3,14.3h30.1c7.9,0,14.3-6.4,14.3-14.3v-77.4L446.4,77.6z"/>
		</g>
	</g>
	<g>
		<g>
			<path class="st3" d="M422.1,220.2v68.8h27.8c7.9,0,14.3-6.4,14.3-14.3v-77.4l-2.5-16.7C439.9,180.6,422.1,198.3,422.1,220.2
				L422.1,220.2z"/>
		</g>
	</g>
	<g>
		<g>
			<path class="st4" d="M447.3,83.2l-0.8-5.6c-1.4-9.3-9.4-16.2-18.8-16.2H27.2C16.3,61.4,7.5,70.2,7.5,81v2.2H447.3z"/>
		</g>
	</g>
	<g>
		<g>
			<path class="st3" d="M383.6,211.4h-28.3V107.9h8.4c11,0,19.9,8.9,19.9,19.9V211.4z"/>
		</g>
	</g>
	<g>
		<g>
			<path class="st4" d="M7.5,162v107.4c0,10.8,8.8,19.6,19.6,19.6h422.8c7.9,0,14.3-6.4,14.3-14.3v-22.3l-29.9-23.6
				C387.1,191.5,328.7,162,268.5,162H7.5z"/>
		</g>
	</g>
	<g>
		<g>
			<path class="st5" d="M434.4,228.9C387.1,191.5,328.7,162,268.5,162h-30.1c60.2,0,118.7,29.5,165.9,66.8l12.4,9.8
				c11.1,8.7,17.5,22.1,17.5,36.1c0,7.9-6.4,14.3-14.3,14.3h30.1c7.9,0,14.3-6.4,14.3-14.3v-22.3L434.4,228.9z"/>
		</g>
	</g>
	<g>
		<g>
			<path class="st6" d="M258.7,61.5h-62.6l20.6-47c1.9-4.2,6-7,10.6-7c4.6,0,8.8,2.7,10.6,7L258.7,61.5z"/>
		</g>
	</g>
	<g>
		<g>
			<path class="st7" d="M361.4,259.7l-16.9-6.8c-84.1-33.8-176.3-54.1-271-59.5l-66-3.8V274c0,8.3,8.8,15.1,19.6,15.1h334.3V259.7z"
				/>
		</g>
	</g>
	<g>
		<g>
			<path class="st8" d="M344.5,252.9c-84.1-33.8-176.3-54.1-271-59.5l-66-3.8v30.1l66,3.8c94.7,5.5,186.9,25.7,271,59.5l15.2,6.1
				h1.7v-29.4L344.5,252.9z"/>
		</g>
	</g>
	<g>
		<g>
			<circle class="st9" cx="361.4" cy="280" r="49.4"/>
		</g>
	</g>
	<g>
		<g>
			<circle class="st5" cx="361.4" cy="280" r="16.9"/>
		</g>
	</g>
	<g>
		<g>
			<circle class="st9" cx="98.9" cy="280" r="49.4"/>
		</g>
	</g>
	<g>
		<g>
			<circle class="st5" cx="98.9" cy="280" r="16.9"/>
		</g>
	</g>
	<g>
		<g>
			<path class="st10" d="M7.5,214.2h25.4V246H7.5V214.2z"/>
		</g>
	</g>
	<g>
		<g>
			<path class="st10" d="M0-83.3"/>
		</g>
	</g>
	<g>
		<path d="M361.4,255.5c-13.5,0-24.4,11-24.4,24.4c0,13.5,11,24.4,24.4,24.4c13.5,0,24.4-11,24.4-24.4
			C385.9,266.5,374.9,255.5,361.4,255.5z M361.4,289.4c-5.2,0-9.4-4.2-9.4-9.4s4.2-9.4,9.4-9.4s9.4,4.2,9.4,9.4
			S366.6,289.4,361.4,289.4z"/>
		<path d="M123.3,280c0-13.5-11-24.4-24.4-24.4s-24.4,11-24.4,24.4c0,13.5,11,24.4,24.4,24.4S123.3,293.5,123.3,280z M89.5,280
			c0-5.2,4.2-9.4,9.4-9.4s9.4,4.2,9.4,9.4s-4.2,9.4-9.4,9.4S89.5,285.2,89.5,280z"/>
		<path d="M491.9,162.7c11.1,0,20.1-9,20.1-20.1V99.3c0-7.9-5.1-14.9-12.6-17.4l-17.6-5.9c0,0,0,0,0,0c-0.5-0.2-1.1-0.3-1.7-0.3
			c-0.1,0-0.2,0-0.3,0c-0.1,0-0.3,0-0.4,0h-25.7c-2.3-12.5-13.3-21.8-26.1-21.8H263.5c0-0.1-0.1-0.3-0.1-0.4l-18.4-42
			C241.9,4.5,235,0,227.4,0c-7.6,0-14.5,4.5-17.5,11.5l-18.4,41.8c-0.1,0.2-0.1,0.4-0.2,0.6h-73.7c-4.2,0-7.5,3.4-7.5,7.5
			s3.4,7.5,7.5,7.5h310c4.6,0,8.7,2.8,10.5,6.8H16.3c2-4,6.1-6.8,10.9-6.8h60.4c4.2,0,7.5-3.4,7.5-7.5s-3.4-7.5-7.5-7.5H27.2
			C12.2,53.8,0,66,0,81v188.4c0,15,12.2,27.2,27.2,27.2h17.3c4.5,14.7,14.7,26.8,28.1,33.8h-65c-4.2,0-7.5,3.4-7.5,7.5
			s3.4,7.5,7.5,7.5h497c4.2,0,7.5-3.4,7.5-7.5s-3.4-7.5-7.5-7.5H387.8c13.4-7,23.6-19.2,28.1-33.8h34.1c12,0,21.8-9.8,21.8-21.8
			v-77.4c0-0.4,0-0.7-0.1-1.1L456,90.7h15.9v51.9C471.9,153.7,480.9,162.7,491.9,162.7L491.9,162.7z M223.6,17.5
			c0.7-1.5,2.1-2.5,3.8-2.5c1.6,0,3.1,1,3.8,2.5l15.9,36.3h-39.4L223.6,17.5z M497,99.3v43.3c0,2.8-2.2,5-5,5c-2.8,0-5-2.2-5-5v-49
			l7.7,2.6C496,96.6,497,97.9,497,99.3L497,99.3z M455.3,188.7l1.4,9.1v39.1L439,223c-3.1-2.4-6.1-4.7-9.1-7
			C431.7,202.2,442.1,191.4,455.3,188.7L455.3,188.7z M438.6,179.1l-5.3-8.1c-0.1-0.1-0.2-0.3-0.3-0.4l6.8-6.8
			c2.9-2.9,2.9-7.7,0-10.6s-7.7-2.9-10.6,0l-23.7,23.7c-2.9,2.9-2.9,7.7,0,10.6c1.5,1.5,3.4,2.2,5.3,2.2c1.9,0,3.8-0.7,5.3-2.2l6-6
			l4.7,7c-4.6,5.1-8.1,11.1-10.1,17.9c-8.7-6-17.2-11.3-25.5-16c0-0.2,0-0.4,0-0.6v-62c0-15.1-12.3-27.4-27.4-27.4h-0.9v-9.7h77.9
			l12.4,83.1C447.9,174.8,443,176.6,438.6,179.1L438.6,179.1z M347.8,224.7c-8.9,2.2-16.9,6.5-23.6,12.3
			c-78.9-28.9-163-46.1-250.2-51.2l-59-3.4v-12.9h253.4c20.3,0,47.4,3.6,79.4,16.5L347.8,224.7L347.8,224.7z M15,221.7h10.4v16.8H15
			L15,221.7z M258.5,154.5h-74.2V90.7h74.2V154.5z M169.3,154.5H95.1V90.7h74.2V154.5z M80,154.5H15V90.7h65V154.5z M273.6,154.6
			V90.7h74.2v79.2C318.7,158.9,293.5,155.1,273.6,154.6z M362.9,115.5h0.9c6.8,0,12.4,5.6,12.4,12.4v54.5c-4.5-2.3-8.9-4.3-13.3-6.3
			V115.5z M57,280c0-23.1,18.8-41.9,41.9-41.9s41.9,18.8,41.9,41.9c0,23.1-18.8,41.9-41.9,41.9S57,303.1,57,280z M125.2,330.4
			c13.4-7,23.6-19.2,28.1-33.8h56.6c4.2,0,7.5-3.4,7.5-7.5s-3.4-7.5-7.5-7.5h-54.2c0-0.5,0-1,0-1.6c0-31.4-25.5-56.9-56.9-56.9
			S42,248.6,42,280c0,0.5,0,1,0,1.6H27.2c-6.7,0-12.1-5.4-12.1-12.1v-15.9h17.9c4.2,0,7.5-3.4,7.5-7.5v-31.9c0-4.2-3.4-7.5-7.5-7.5
			H15v-9.2l58.1,3.4c83.7,4.8,164.6,21.1,240.5,48.3c-5.7,8.9-9.1,19.5-9.1,30.8c0,0.5,0,1,0,1.6H240c-4.2,0-7.5,3.4-7.5,7.5
			s3.4,7.5,7.5,7.5h67c4.5,14.7,14.7,26.8,28.1,33.8L125.2,330.4z M361.4,321.8c-23.1,0-41.9-18.8-41.9-41.9
			c0-23.1,18.8-41.9,41.9-41.9c23.1,0,41.9,18.8,41.9,41.9C403.3,303.1,384.5,321.8,361.4,321.8z M449.9,281.5h-31.6
			c0-0.5,0-1,0-1.6c0-30.9-24.8-56.1-55.5-56.9v-30.5c20.6,9.8,43.1,23.4,66.8,42.1l27,21.3v18.7
			C456.7,278.5,453.7,281.5,449.9,281.5L449.9,281.5z"/>
	</g>
</g>
</svg>
