<?xml version="1.0" encoding="utf-8"?>
<!-- Generator: Adobe Illustrator 28.0.0, SVG Export Plug-In . SVG Version: 6.00 Build 0)  -->
<svg version="1.1" id="Capa_1" xmlns="http://www.w3.org/2000/svg" xmlns:xlink="http://www.w3.org/1999/xlink" x="0px" y="0px"
	 viewBox="0 0 512 389.2" style="enable-background:new 0 0 512 389.2;" xml:space="preserve">
<style type="text/css">
	.st0{fill:#8896E0;}
	.st1{fill:#DD8858;}
	.st2{fill:#C9F0FE;}
	.st3{fill:#9BE8FD;}
	.st4{fill:#6B7ED9;}
	.st5{fill:#62DDFC;}
	.st6{fill:#00C2FB;}
	.st7{fill:#CB6C35;}
	.st8{fill:#E39B74;}
	.st9{fill:none;stroke:#000000;stroke-width:15.0001;stroke-linecap:round;stroke-linejoin:round;stroke-miterlimit:10.0001;}
</style>
<g>
	<path class="st0" d="M420.4,100.5l-9.5,4.1l-39.4,65.1l2.9,9.9l4.2,3.9c5.5-0.4,10.7-3.3,13.9-8.3l33.4-51.4
		c4.5-6.9,3.7-15.7-1.3-21.7L420.4,100.5z"/>
	<path class="st1" d="M53.4,373.4l5.6,7.3h3.3c4.2-1.8,7.2-6,7.2-10.9v-30.6H53.4V373.4z"/>
	<rect x="356.8" y="183.7" class="st2" width="76.4" height="84.2"/>
	<rect x="319.6" y="183.7" class="st3" width="39.8" height="84.2"/>
	<polygon class="st0" points="76.2,183.7 71.6,185.5 63.7,197.2 63.7,269.2 270.2,269.2 270.2,183.7 	"/>
	<path class="st4" d="M84.4,183.7h-43c-10.7,0-19.4,8.7-19.4,19.4v66.1h43v-66.1C65,192.4,73.7,183.7,84.4,183.7z"/>
	<path class="st5" d="M313.3,169.7h-9.7l-3.8,2.2l-2.3,6.2v91.2H324v-88.9C324,174.5,319.2,169.7,313.3,169.7z"/>
	<path class="st6" d="M309.3,169.7h-32.7c-5.9,0-10.7,4.8-10.7,10.7v88.9h32.7v-88.9C298.7,174.5,303.4,169.7,309.3,169.7z"/>
	<path class="st4" d="M466.5,23.5h-17c-11.4,0-20.7,9.3-20.7,20.7v217.2l4.4,3.1h38V31.2L466.5,23.5z"/>
	<path class="st4" d="M377.3,161.9l33.4-51.4c3.2-5,8.5-7.8,13.9-8.3c-1.1-1.4-2.5-2.6-4.1-3.6l-7.3-4.7c-8.5-5.5-19.8-3.1-25.4,5.4
		l-33.4,51.4c-5.5,8.5-3.1,19.8,5.4,25.4l7.3,4.7c3.5,2.3,7.5,3.2,11.4,2.9C373.6,177.6,372.8,168.8,377.3,161.9z"/>
	<path class="st1" d="M495.7,7.5h-20.3c-4.9,0-8.8,4-8.8,8.8v248.2h38V16.4C504.5,11.5,500.5,7.5,495.7,7.5z"/>
	<path class="st1" d="M464.4,373.4l5.6,7.3h3.3c4.2-1.8,7.2-6,7.2-10.9v-30.6h-16.1V373.4z"/>
	<path class="st7" d="M466.2,369.9v-30.6h-23.7v30.6c0,6.5,5.3,11.9,11.9,11.9h14.3c1.7,0,3.2-0.3,4.7-1
		C469.1,379,466.2,374.8,466.2,369.9z"/>
	<path class="st7" d="M55.2,369.9v-30.6H31.5v30.6c0,6.5,5.3,11.9,11.9,11.9h14.3c1.7,0,3.2-0.3,4.7-1
		C58.1,379,55.2,374.8,55.2,369.9z"/>
	<path class="st8" d="M58,261.4l-5.7,3.4l-3.3,7.6v60.1l3.1,5.5l7.8,3.7h431.3c7.3,0,13.2-5.9,13.2-13.2v-67L58,261.4L58,261.4z"/>
	<path class="st1" d="M50.5,328.5v-53.8c0-7.3,5.9-13.2,13.2-13.2h-43c-7.3,0-13.2,5.9-13.2,13.2v53.8c0,7.3,5.9,13.2,13.2,13.2h43
		C56.4,341.7,50.5,335.8,50.5,328.5z"/>
	<path class="st9" d="M442.5,341.7v28.2c0,6.5,5.3,11.9,11.9,11.9h14.3c6.5,0,11.9-5.3,11.9-11.9v-28.2H442.5z"/>
	<path class="st9" d="M31.5,369.9c0,6.5,5.3,11.9,11.9,11.9h14.3c6.5,0,11.9-5.3,11.9-11.9v-28.2h-38L31.5,369.9L31.5,369.9z"/>
	<path class="st9" d="M20.7,261.4c-7.3,0-13.2,5.9-13.2,13.2v53.8c0,7.3,5.9,13.2,13.2,13.2h470.5c7.3,0,13.2-5.9,13.2-13.2v-67
		H20.7z"/>
	<g>
		<path class="st9" d="M466.5,261.4V23.5h-17c-11.4,0-20.7,9.3-20.7,20.7v217.2H466.5z"/>
	</g>
	<path class="st9" d="M313.3,169.7h-36.7c-5.9,0-10.7,4.8-10.7,10.7v81h58v-81C324,174.5,319.2,169.7,313.3,169.7z"/>
	<rect x="324" y="183.7" class="st9" width="104.8" height="77.7"/>
	<path class="st9" d="M266,183.7H41.4c-10.7,0-19.4,8.7-19.4,19.4v58.3h244V183.7z"/>
	<path class="st9" d="M420.5,98.6l-7.3-4.7c-8.5-5.5-19.8-3.1-25.4,5.4l-33.4,51.4c-5.5,8.5-3.1,19.8,5.4,25.4l7.3,4.7
		c8.5,5.5,19.8,3.1,25.4-5.4l33.4-51.4C431.4,115.4,429,104.1,420.5,98.6z"/>
	<path class="st9" d="M504.5,125V16.4c0-4.9-4-8.8-8.8-8.8h-20.3c-4.9,0-8.8,4-8.8,8.8v245h38V160"/>
</g>
</svg>
