<?xml version="1.0" encoding="utf-8"?>
<!-- Generator: Adobe Illustrator 28.0.0, SVG Export Plug-In . SVG Version: 6.00 Build 0)  -->
<svg version="1.1" id="Camada_1" xmlns="http://www.w3.org/2000/svg" xmlns:xlink="http://www.w3.org/1999/xlink" x="0px" y="0px"
	 viewBox="0 0 430.9 376.4" style="enable-background:new 0 0 430.9 376.4;" xml:space="preserve">
<style type="text/css">
	.st0{fill:#46C7AE;}
	.st1{fill:#BDF5EE;}
	.st2{fill:#FFDF28;}
	.st3{fill:#FFB920;}
	.st4{fill:#FFFFFF;}
	.st5{fill:#E0E0E0;}
	.st6{fill:#F96835;}
	.st7{fill:#EF4720;}
</style>
<path class="st0" d="M99.5,333.7L9.9,369.6c-2.2,0.9-4.7-0.1-5.6-2.3c-0.3-0.8-0.4-1.6-0.3-2.4l36-215.7c0.9-5.4,4.3-10.1,9.3-12.5
	l69.5-34.7L99.5,333.7z"/>
<path class="st1" d="M215.5,372.4L99.5,333.7l19.3-231.9l96.6,38.7V372.4z"/>
<path class="st1" d="M420.9,369.6l-89.6-35.8l-19.2-231.9l69.5,34.7c4.9,2.4,8.4,7.1,9.3,12.5l36,215.7c0.4,2.3-1.1,4.5-3.4,5
	C422.5,370,421.7,369.9,420.9,369.6L420.9,369.6z"/>
<path class="st0" d="M331.4,333.7l-115.9,38.7V140.5l96.6-38.7L331.4,333.7z"/>
<path class="st2" d="M99.6,175.8c-30.6,0.1-55.4,25-55.3,55.7c0,3.1,0.3,6.2,0.8,9.3c2,18.3,14.5,33.8,26.3,47.2
	c7.3,8.7,13.3,18.4,17.8,28.8l6.2,14.3c0.8,2.2,3.2,3.4,5.4,2.6c1.2-0.4,2.2-1.4,2.6-2.6l6.3-14.3c4.6-10.4,10.5-20.1,17.7-28.8
	c11.8-13.4,24.3-28.9,26.3-47.2c5.2-30.2-15-58.9-45.2-64.1C105.7,176.1,102.7,175.8,99.6,175.8L99.6,175.8z"/>
<path class="st3" d="M153.9,240.7c-2,18.3-14.4,33.8-26.2,47.2c-7.2,8.7-13.2,18.4-17.8,28.8l-6.3,14.3c-0.7,1.6-2.3,2.7-4,2.6
	V175.9c30.6,0.2,55.3,25.2,55.1,55.8C154.6,234.7,154.4,237.7,153.9,240.7L153.9,240.7z"/>
<circle class="st4" cx="99.5" cy="227.7" r="27.3"/>
<path class="st5" d="M126.8,227.7c0,15.1-12.2,27.3-27.3,27.3c0,0,0,0,0,0v-54.6C114.6,200.5,126.8,212.7,126.8,227.7z"/>
<path class="st6" d="M317.2,4.3c-30.6,0.1-55.4,25-55.3,55.7c0,3.1,0.3,6.2,0.8,9.3c2,18.3,14.5,33.8,26.3,47.2
	c7.2,8.8,13.2,18.5,17.8,28.8l6.2,14.3c0.8,2.2,3.2,3.4,5.4,2.6c1.2-0.4,2.2-1.4,2.6-2.6l6.3-14.3c4.6-10.4,10.6-20.1,17.8-28.8
	c11.8-13.4,24.2-28.9,26.2-47.2c5.2-30.2-15-58.9-45.2-64.1C323.3,4.5,320.2,4.3,317.2,4.3L317.2,4.3z"/>
<path class="st7" d="M371.4,69.2c-2,18.3-14.4,33.8-26.2,47.2c-7.2,8.8-13.2,18.5-17.8,28.8l-6.3,14.3c-0.7,1.6-2.3,2.6-4,2.6V4.3
	c30.6,0.2,55.3,25.2,55.1,55.8C372.2,63.2,371.9,66.2,371.4,69.2L371.4,69.2z"/>
<path class="st4" d="M344.4,56.3c0,15.1-12.2,27.3-27.3,27.3s-27.3-12.2-27.3-27.3S302,29,317.1,29C332.2,29,344.4,41.2,344.4,56.3z
	"/>
<path class="st5" d="M344.4,56.3c0,15.1-12.2,27.3-27.3,27.3V29C332.2,29,344.4,41.2,344.4,56.3C344.4,56.3,344.4,56.3,344.4,56.3z"
	/>
<g>
	<path d="M430.9,364.2L395,148.5c-1.1-6.8-5.4-12.6-11.6-15.6l-32.6-16.3c11.3-13.1,22.9-28.5,24.8-46.6c7.1-34.7-23-71.2-58.5-69.9
		c-35.6-1.2-65.6,35.1-58.7,69.7c1.7,15.6,10.5,29.2,20.1,41l-63.1,25.2l-95-38c-1.1-0.5-2.4-0.5-3.5,0l-69.4,34.9
		c-6.1,3.1-10.5,8.9-11.6,15.7L0,364.2c-0.8,4.6,2.3,9.1,6.9,9.9c1.6,0.3,3.2,0.1,4.7-0.5l88-35.2l114.4,38.1c0.9,0.3,1.8,0.3,2.7,0
		l114.4-38.1l88.1,35.2c4.4,1.8,9.3-0.4,11.1-4.7C431,367.4,431.2,365.8,430.9,364.2z M278.7,26.2c9.5-11.3,23.6-17.8,38.4-17.8
		c30.7-0.8,56.3,30.3,50.1,60.5c-3.6,29.6-33.7,47.4-43.7,74.8L317,158c-6.4-15.4-13.6-31.4-24.7-44.3
		C268.6,89.5,254.7,54.8,278.7,26.2z M285.7,119c6.9,8.4,12.7,17.8,17.1,27.8l6.5,14.4c0.8,1.8,2.2,3.3,3.9,4.3L327,330.8
		l-107.3,35.6v-35l17.4-4.9c2.2-0.8,3.4-3.2,2.6-5.4c-0.7-2.1-2.9-3.3-5-2.8l-15.1,4.3V143.4l64.6-25.9L285.7,119z M138,197.9
		c24,28.8,9.9,63.2-13.7,87.3c-10.9,12.8-18.2,29-24.9,44.2l-6.2-14.3c-10-27.2-40.4-45.7-43.8-75.1c-6-29.9,19.7-61.1,50.2-59.7
		C114.4,180.1,128.5,186.6,138,197.9L138,197.9z M113.7,318.5c10.8-28.1,40.9-45.4,44.3-77.1c4.9-29.4-12.4-58-40.7-67.4l5.5-66
		l88.4,35.4v223L107.9,332L113.7,318.5z M8.4,365.4l35.9-215.5c0.7-4.1,3.3-7.6,7-9.5l62.6-31.3l-5.2,63.1
		c-39-7.1-75.2,30.3-67.8,69c3.4,31.7,33.6,49.5,44.3,77.3l6.1,13.9L8.4,365.4z M335.4,330.6l-13.8-165.5c1.5-0.9,2.7-2.3,3.4-3.9
		l6.3-14.3c3.7-8.4,8.4-16.4,14-23.7l34.1,17.1c3.8,1.9,6.5,5.5,7.2,9.7l35.9,215.8L335.4,330.6z"/>
	<path d="M293.7,180.5c3.3-1.1,6.5-2.5,9.6-4.3c2.1-1.1,2.9-3.7,1.9-5.8s-3.7-2.9-5.8-1.9l0,0l-7.6,3.8c-2.1,1.1-2.9,3.6-1.9,5.7
		C290.6,179.6,292.1,180.5,293.7,180.5L293.7,180.5z"/>
	<path d="M264.1,237.6c-2.3,0.2-4.1,2.2-3.9,4.6c0,0,0,0,0,0l1.5,18.4c0.2,2.4,2.3,4.1,4.6,3.9s4.1-2.3,3.9-4.6l0,0l-1.5-18.4
		C268.6,239.2,266.5,237.4,264.1,237.6C264.2,237.6,264.2,237.6,264.1,237.6z"/>
	<path d="M264.1,292.8c0,0.9,0.4,5.1,0.4,5.9c0,3.2-1,6.3-2.9,8.8c-1.4,1.9-1,4.6,0.9,6l0,0c7.7,4.3,11.2-11.3,10.5-16.6l-0.3-4.7
		c-0.2-2.4-2.2-4.1-4.6-3.9C265.7,288.4,264,290.4,264.1,292.8L264.1,292.8z"/>
	<path d="M257.7,210c0.2,2.4,2.3,4.1,4.6,3.9s4.1-2.3,3.9-4.6l0,0c-1.1-5-0.1-10.3,2.9-14.5c1.5-1.8,1.1-4.5-0.7-6
		c-7.3-4.6-11.3,10.2-11.1,15.4C257.3,205.4,257.7,208.7,257.7,210L257.7,210z"/>
	<path d="M186.3,322.7l-18.4-0.8c-2.4-0.1-4.4,1.7-4.5,4.1s1.7,4.4,4.1,4.5l0,0l18.6,0.9c2.4,0.1,4.3-1.8,4.4-4.2
		S188.7,322.7,186.3,322.7L186.3,322.7L186.3,322.7z"/>
	<path d="M135.6,320.6l-8.5-0.4c-2.4,0-4.3,1.9-4.3,4.3s1.9,4.3,4.3,4.3l8.5,0.4c2.4,0,4.3-1.9,4.3-4.3S137.9,320.6,135.6,320.6z"/>
	<path d="M68,227.7c0,17.4,14.1,31.5,31.6,31.6c41.8-1.5,41.8-61.7,0-63.1C82.1,196.2,68,210.3,68,227.7z M122.6,227.7
		c-1,30.5-45.1,30.5-46.1,0C77.5,197.3,121.6,197.3,122.6,227.7z"/>
	<path d="M317.1,87.8c17.4,0,31.5-14.1,31.6-31.6c-1.5-41.8-61.7-41.8-63.1,0C285.5,73.7,299.7,87.8,317.1,87.8z M317.1,33.2
		c30.5,1,30.5,45.1,0,46.1C286.7,78.3,286.7,34.2,317.1,33.2z"/>
</g>
</svg>
