<svg width="47" height="40" viewBox="0 0 40 40" fill="none" xmlns="http://www.w3.org/2000/svg">
<path d="M38.7971 9.12617V30.5509C38.7971 34.7574 35.3871 38.1675 31.1805 38.1675H9.75578C5.5492 38.1675 2.13914 34.7574 2.13914 30.5509V9.12617C2.13914 4.91958 5.5492 1.50952 9.75578 1.50952H31.1805C35.3871 1.50952 38.7971 4.91958 38.7971 9.12617ZM16.5851 30.2251C25.6267 33.3447 33.9744 24.9971 30.8547 15.9555C29.8036 12.9081 27.3988 10.5031 24.3514 9.45194C15.3095 6.33229 6.96191 14.6799 10.0816 23.7218C11.1327 26.7692 13.5375 29.174 16.5851 30.2251ZM7.74814 8.75386C7.89201 9.5072 8.51536 9.94551 9.16018 9.94551C9.55263 9.94551 9.95268 9.78352 10.259 9.43202C10.2861 9.40092 10.3113 9.36759 10.3337 9.3329C10.6499 8.84962 10.6597 8.2755 10.391 7.80989C10.2008 7.48032 9.89384 7.24494 9.52623 7.14649C9.15906 7.0476 8.77512 7.09839 8.446 7.28879C7.98016 7.55728 7.70183 8.05959 7.7336 8.6355C7.73584 8.67488 7.74054 8.71493 7.74814 8.75386Z" fill="#D0D0D0"/>
<path d="M20.4681 10.9331C25.3788 10.9331 29.3735 14.9278 29.3735 19.8385C29.3735 24.7492 25.3788 28.7439 20.4681 28.7439C15.5574 28.7439 11.5627 24.7492 11.5627 19.8385C11.5627 14.9278 15.5574 10.9331 20.4681 10.9331Z" fill="#D0D0D0"/>
</svg>
