<?xml version="1.0" encoding="utf-8"?>
<!-- Generator: Adobe Illustrator 28.0.0, SVG Export Plug-In . SVG Version: 6.00 Build 0)  -->
<svg version="1.1" xmlns="http://www.w3.org/2000/svg" xmlns:xlink="http://www.w3.org/1999/xlink" x="0px" y="0px"
	 viewBox="0 0 291.1 233" style="enable-background:new 0 0 291.1 233;" xml:space="preserve">
<style type="text/css">
	.st0{fill:url(#SVGID_1_);}
	.st1{fill:url(#SVGID_00000081640602803385839040000007277085208248285871_);}
	.st2{fill:#FFD68D;}
	.st3{fill:url(#SVGID_00000001657144084842976450000011397287015097797054_);}
	.st4{fill:url(#SVGID_00000007389988384751892320000007997061042386902428_);}
	.st5{fill:url(#SVGID_00000044886316367150468210000018286233478344415921_);}
</style>
<g id="Background">
</g>
<g id="Objects">
	<g>
		
			<linearGradient id="SVGID_1_" gradientUnits="userSpaceOnUse" x1="271.1148" y1="172.0638" x2="10.6051" y2="172.0638" gradientTransform="matrix(0.9998 2.270000e-02 -1.440000e-02 0.9999 4.5184 -6.4006)">
			<stop  offset="0" style="stop-color:#29D0E2"/>
			<stop  offset="0.3216" style="stop-color:#46CBDC"/>
			<stop  offset="1" style="stop-color:#8DBFCC"/>
		</linearGradient>
		<path class="st0" d="M6.4,171.4c2.9,0.7,5.6,1.7,8.3,2.4c2.7,0.7,5.5,1.3,8.2,1.9l8.1,1.2c2.7,0.3,5.4,0.4,8.1,0.6
			c10.7,0.3,21.1-1.2,31.5-3.8c20.7-5.2,41.1-14.4,63.2-21.8c11-3.7,22.4-7,34.2-8.9c11.8-2,24-2.4,36.1-0.8
			c12.1,1.7,23.9,5.8,34.5,11.9c2.7,1.4,5.3,3.2,7.8,4.9l3.8,2.6c1.2,1,2.4,2,3.5,3c2.3,2.1,4.7,3.9,6.9,6.2
			c2.1,2.3,4.3,4.5,6.3,6.8c-5.5-2.2-10.7-4.7-16.1-6.6l-4-1.5l-4-1.2c-2.7-0.8-5.3-1.7-8-2.2c-10.6-2.6-21.2-3.7-31.6-3.2
			c-21,0.7-41.4,7.3-62.6,14.7c-21.1,7.3-43.3,15.8-67.5,17.4c-12,0.8-24.4-0.3-36-4.3C25.6,187.1,15,180.3,6.4,171.4z"/>
		
			<linearGradient id="SVGID_00000080177423347731967150000008029445407718895501_" gradientUnits="userSpaceOnUse" x1="134.7506" y1="14.1896" x2="134.7506" y2="274.6592" gradientTransform="matrix(0.9035 7.080000e-02 -8.590000e-02 1.0963 54.4755 -48.6295)">
			<stop  offset="0" style="stop-color:#29D0E2"/>
			<stop  offset="0.3216" style="stop-color:#46CBDC"/>
			<stop  offset="1" style="stop-color:#8DBFCC"/>
		</linearGradient>
		<path style="fill:url(#SVGID_00000080177423347731967150000008029445407718895501_);" d="M21.7,202.8c2.9,1,5.7,2.1,8.5,3.1
			c2.8,1,5.6,1.7,8.4,2.6l8.4,1.8c2.8,0.5,5.6,0.7,8.3,1.1c11.1,0.9,22-0.1,32.9-2.4c21.8-4.5,43.6-13.5,67-20.4
			c11.7-3.4,23.7-6.4,36.1-7.9c12.4-1.5,25.1-1.3,37.5,1.2c12.4,2.6,24.3,7.7,34.9,15c2.7,1.7,5.2,3.8,7.7,5.9l3.7,3.1
			c1.2,1.1,2.3,2.3,3.5,3.5c2.2,2.4,4.6,4.5,6.7,7.2c2,2.6,4.1,5.2,6.1,7.8c-5.6-2.7-10.7-5.8-16.2-8.1l-4-1.8l-4.1-1.5
			c-2.7-1-5.3-2.2-8.1-2.9c-10.8-3.4-21.7-5.2-32.6-5.3c-21.8-0.4-43.4,5.7-65.9,12.6c-22.4,6.8-46,14.9-71.2,15.4
			c-12.5,0.2-25.2-1.7-37-6.7C40.5,221.1,29.9,213.2,21.7,202.8z"/>
		<path class="st2" d="M195.7,129c-71.2,0.3-108.3,24.4-129.1,29.6c-10.4,2.6-20.9,4.1-31.6,3.8c-2.7-0.2-5.4-0.3-8.1-0.6l-8.2-1.2
			c-2.7-0.6-5.5-1.2-8.2-1.9c-2.1-0.6-6.3-2.2-9.4-3.2c5.9-6.9,18.7-16.7,39.2-25.1s35.5-11.6,55.1-13.5
			C142.3,112.3,189.1,126.6,195.7,129z"/>
		<path class="st2" d="M82.5,105.6c41.3-7.7,72.4-2.5,97.8,4.2c29.6,7.8,63,23.2,72.7,35.6c-4.1-34.2-36.2-63-74.4-70.4
			C121.3,63.9,88.4,96.9,82.5,105.6z"/>
		
			<linearGradient id="SVGID_00000166643929917730081990000010815129838187588759_" gradientUnits="userSpaceOnUse" x1="23.9569" y1="28.137" x2="80.231" y2="28.137">
			<stop  offset="0" style="stop-color:#FFD552"/>
			<stop  offset="1" style="stop-color:#FF992A"/>
		</linearGradient>
		<circle style="fill:url(#SVGID_00000166643929917730081990000010815129838187588759_);" cx="52.1" cy="28.1" r="28.1"/>
		<g>
			
				<linearGradient id="SVGID_00000008838189378808680050000017967486434156321956_" gradientUnits="userSpaceOnUse" x1="0" y1="99.26" x2="37.4982" y2="99.26">
				<stop  offset="0" style="stop-color:#29D0E2"/>
				<stop  offset="0.2114" style="stop-color:#29CDE2"/>
				<stop  offset="0.3812" style="stop-color:#29C3E2"/>
				<stop  offset="0.5365" style="stop-color:#29B2E2"/>
				<stop  offset="0.6833" style="stop-color:#299AE2"/>
				<stop  offset="0.824" style="stop-color:#297BE2"/>
				<stop  offset="0.9583" style="stop-color:#2956E2"/>
				<stop  offset="1" style="stop-color:#2949E2"/>
			</linearGradient>
			<path style="fill:url(#SVGID_00000008838189378808680050000017967486434156321956_);" d="M26.2,57.6C9.8,78.7,0,105.1,0,133.8
				c0,2.4,0.1,4.7,0.2,7.1c1.6-2.1,10.5-8.6,12.9-9.6c0.6-25.2,9.6-48.3,24.3-66.7C33.3,62.9,29.5,60.5,26.2,57.6z"/>
			
				<linearGradient id="SVGID_00000120537675320433975180000000808922792222558385_" gradientUnits="userSpaceOnUse" x1="89.012" y1="50.0161" x2="240.2498" y2="50.0161">
				<stop  offset="0" style="stop-color:#29D0E2"/>
				<stop  offset="0.2114" style="stop-color:#29CDE2"/>
				<stop  offset="0.3812" style="stop-color:#29C3E2"/>
				<stop  offset="0.5365" style="stop-color:#29B2E2"/>
				<stop  offset="0.6833" style="stop-color:#299AE2"/>
				<stop  offset="0.824" style="stop-color:#297BE2"/>
				<stop  offset="0.9583" style="stop-color:#2956E2"/>
				<stop  offset="1" style="stop-color:#2949E2"/>
			</linearGradient>
			<path style="fill:url(#SVGID_00000120537675320433975180000000808922792222558385_);" d="M124.1,9.8c-12.2,0-23.9,1.8-35.1,5.1
				c1.5,4.1,2.3,8.4,2.4,13c10.3-3.2,21.3-4.9,32.7-4.9c37,0,69.7,18.2,89.9,46.1c12.9,8.1,22,17.1,26.3,21.3
				C222.6,43.2,177.3,9.8,124.1,9.8z"/>
		</g>
		<path d="M72.7,67.1c-2.6,0-4.9,1-6.6,2.6c-1.8-1.6-4.1-2.5-6.7-2.5c-5.5,0-10,4.5-10,10c0,0,0,0,0,0.1c0,0.2,0.1,0.3,0.3,0.4
			c0.2,0,0.4-0.1,0.4-0.2c1.5-3.3,5.1-4.8,9.2-4.8c2.6,0,4.9,1,6.7,2.5c1.8-1.6,4.1-2.6,6.6-2.6c4.2,0,7.7,1.5,9.2,4.8
			c0.1,0.2,0.3,0.3,0.4,0.2c0.2,0,0.3-0.2,0.3-0.4c0,0,0,0,0-0.1C82.6,71.6,78.2,67.1,72.7,67.1z"/>
		<path d="M118.4,59.5c-1.8-0.4-3.5-0.1-5,0.7c-1-1.4-2.4-2.4-4.2-2.8c-3.8-0.9-7.6,1.5-8.5,5.3c0,0,0,0,0,0c0,0.1,0,0.3,0.2,0.3
			c0.1,0.1,0.3,0,0.3-0.1c1.6-2,4.3-2.5,7.1-1.8c1.8,0.4,3.2,1.5,4.2,2.8c1.5-0.8,3.2-1.1,5-0.7c2.9,0.7,5.2,2.3,5.7,4.9
			c0,0.1,0.1,0.2,0.2,0.2c0.1,0,0.2-0.1,0.3-0.2c0-0.1,0-0.1,0-0.2C124.6,64.2,122.2,60.4,118.4,59.5z"/>
		<path d="M87.5,45.5c0.1,0,0.2,0,0.2-0.1c0.6-1.4,2.1-2.1,3.9-2.1c1.1,0,2.1,0.4,2.9,1c0.7-0.7,1.7-1.1,2.8-1.2
			c1.8,0,3.3,0.5,4,1.9c0,0.1,0.1,0.1,0.2,0.1c0.1,0,0.1-0.1,0.1-0.2c-0.1-2.3-2-4.2-4.4-4.1c-1.1,0-2.1,0.5-2.8,1.2
			c-0.8-0.7-1.8-1-2.9-1c-2.3,0.1-4.2,2-4.1,4.4C87.3,45.4,87.4,45.5,87.5,45.5z"/>
		<path d="M124.3,33.8c0.6,0.3,1,0.9,1.2,1.5c0.6-0.1,1.3,0,1.9,0.3c1,0.6,1.6,1.4,1.5,2.5c0,0,0,0.1,0.1,0.1c0,0,0.1,0,0.1,0
			c0,0,0-0.1,0.1-0.1c0.7-1.3,0.3-2.9-1-3.7c-0.6-0.3-1.3-0.4-1.9-0.3c-0.2-0.6-0.6-1.1-1.2-1.5c-1.3-0.7-2.9-0.3-3.7,1
			c0,0,0,0.1,0,0.1c0,0,0.1,0,0.1,0C122.3,33.1,123.4,33.3,124.3,33.8z"/>
	</g>
</g>
</svg>
