<?xml version="1.0" encoding="utf-8"?>
<!-- Generator: Adobe Illustrator 28.0.0, SVG Export Plug-In . SVG Version: 6.00 Build 0)  -->
<svg version="1.1" id="Camada_1" xmlns="http://www.w3.org/2000/svg" xmlns:xlink="http://www.w3.org/1999/xlink" x="0px" y="0px"
	 viewBox="0 0 208 53.7" style="enable-background:new 0 0 208 53.7;" xml:space="preserve">
<style type="text/css">
	.st0{fill:url(#SVGID_1_);}
	.st1{fill:#FFFFFF;}
</style>
<linearGradient id="SVGID_1_" gradientUnits="userSpaceOnUse" x1="0" y1="26.825" x2="207.97" y2="26.825">
	<stop  offset="0" style="stop-color:#00E3AE"/>
	<stop  offset="1" style="stop-color:#9BE15D"/>
</linearGradient>
<path class="st0" d="M181.1,53.7H26.8C12,53.7,0,41.6,0,26.8v0C0,12,12,0,26.8,0h154.3C196,0,208,12,208,26.8v0
	C208,41.6,196,53.7,181.1,53.7z"/>
<g>
	<path class="st1" d="M33.5,39.5c-1.1-1.2-1.7-3.2-1.7-6v-2.7h5.4v3.4c0,1.4,0.4,2,1.3,2c0.5,0,0.8-0.1,1-0.4
		c0.2-0.3,0.3-0.8,0.3-1.4c0-0.9-0.1-1.6-0.3-2.2c-0.2-0.6-0.5-1.1-0.8-1.5c-0.3-0.4-0.9-1-1.8-1.8l-2.4-2.4
		c-1.8-1.8-2.7-3.8-2.7-5.9c0-2.3,0.5-4.1,1.6-5.3c1.1-1.2,2.6-1.8,4.7-1.8c2.5,0,4.2,0.6,5.3,2c1.1,1.3,1.6,3.3,1.6,6.1h-5.6l0-1.9
		c0-0.4-0.1-0.6-0.3-0.9c-0.2-0.2-0.5-0.3-0.8-0.3c-0.4,0-0.7,0.1-1,0.3c-0.2,0.2-0.3,0.6-0.3,1c0,0.9,0.5,1.8,1.5,2.8l3.2,3.1
		c0.7,0.7,1.4,1.4,1.8,2.1c0.5,0.6,0.9,1.4,1.2,2.3c0.3,0.9,0.4,1.9,0.4,3.1c0,2.7-0.5,4.7-1.5,6.1c-1,1.4-2.6,2.1-4.9,2.1
		C36.4,41.3,34.6,40.7,33.5,39.5z"/>
	<path class="st1" d="M47.5,39.5c-0.7-1.2-1-2.9-1-5.1c0-1.8,0.2-3.2,0.7-4.2s1.1-1.7,2-2.2c0.9-0.5,2.1-1,3.9-1.5l1.5-0.5v-0.1
		v-2.3c0-0.6-0.1-1.1-0.4-1.4c-0.2-0.3-0.5-0.5-0.9-0.5c-0.3,0-0.6,0.1-0.8,0.4c-0.2,0.3-0.3,0.6-0.3,1.1v1.4h-5.4v-0.8
		c0-2.3,0.5-3.9,1.6-4.9c1.1-1,2.8-1.5,5.2-1.5c1.9,0,3.5,0.5,4.7,1.5c1.2,1,1.8,2.4,1.8,4.3v17.8h-5.5v-2.8c-0.3,1-0.7,1.7-1.3,2.2
		c-0.6,0.5-1.3,0.8-2.2,0.8C49.4,41.3,48.1,40.7,47.5,39.5z M54.3,36.5c0.2-0.3,0.3-0.8,0.3-1.3v-6.5c-0.8,0.3-1.4,0.7-1.8,1.2
		c-0.4,0.5-0.6,1.2-0.6,2v3c0,1.4,0.4,2.1,1.2,2.1C53.8,37,54.1,36.8,54.3,36.5z"/>
	<path class="st1" d="M62.3,16.2v-3.9h5.6v3.9H62.3z M62.3,41.1V17.7h5.6v23.3L62.3,41.1L62.3,41.1z"/>
	<path class="st1" d="M75.8,38.6v2.5h-5.7V13.5h5.7v5.3c0.9-0.9,1.9-1.4,3.1-1.4c1.8,0,3.1,0.5,3.9,1.6c0.8,1.1,1.2,2.6,1.2,4.6V35
		c0,1.9-0.4,3.4-1.2,4.6c-0.8,1.2-2,1.7-3.7,1.7C77.5,41.3,76.4,40.4,75.8,38.6z M78,36.6c0.2-0.2,0.3-0.6,0.3-0.9c0-0.4,0-1,0-1.7
		v-9.7c0-0.8-0.1-1.4-0.2-1.9c-0.1-0.4-0.5-0.6-1-0.6c-0.5,0-0.9,0.2-1.1,0.6c-0.2,0.4-0.3,1-0.3,1.8V34c0,1,0.1,1.8,0.3,2.3
		c0.2,0.5,0.6,0.7,1.1,0.7C77.6,37,77.8,36.9,78,36.6z"/>
	<path class="st1" d="M86.5,39.5c-0.7-1.2-1-2.9-1-5.1c0-1.8,0.2-3.2,0.7-4.2s1.1-1.7,2-2.2c0.9-0.5,2.1-1,3.9-1.5l1.5-0.5v-0.1
		v-2.3c0-0.6-0.1-1.1-0.4-1.4c-0.2-0.3-0.5-0.5-0.9-0.5c-0.3,0-0.6,0.1-0.8,0.4c-0.2,0.3-0.3,0.6-0.3,1.1v1.4h-5.4v-0.8
		c0-2.3,0.5-3.9,1.6-4.9c1.1-1,2.8-1.5,5.2-1.5c1.9,0,3.5,0.5,4.7,1.5c1.2,1,1.8,2.4,1.8,4.3v17.8h-5.5v-2.8c-0.3,1-0.7,1.7-1.3,2.2
		c-0.6,0.5-1.3,0.8-2.2,0.8C88.4,41.3,87.2,40.7,86.5,39.5z M93.3,36.5c0.2-0.3,0.3-0.8,0.3-1.3v-6.5c-0.8,0.3-1.4,0.7-1.8,1.2
		c-0.4,0.5-0.6,1.2-0.6,2v3c0,1.4,0.4,2.1,1.2,2.1C92.9,37,93.2,36.8,93.3,36.5z"/>
	<path class="st1" d="M108.9,41.1V13.7h8.3l2.3,16.7l2.3-16.7h8.4v27.4h-5V21.4l-3.2,19.7h-4.9l-3.3-19.7v19.7H108.9z"/>
	<path class="st1" d="M133.1,39.5c-0.7-1.2-1-2.9-1-5.1c0-1.8,0.2-3.2,0.7-4.2c0.5-1,1.1-1.7,2-2.2c0.9-0.5,2.1-1,3.9-1.5l1.5-0.5
		v-0.1v-2.3c0-0.6-0.1-1.1-0.4-1.4c-0.2-0.3-0.5-0.5-0.9-0.5c-0.3,0-0.6,0.1-0.8,0.4c-0.2,0.3-0.3,0.6-0.3,1.1v1.4h-5.4v-0.8
		c0-2.3,0.5-3.9,1.6-4.9c1.1-1,2.8-1.5,5.2-1.5c1.9,0,3.5,0.5,4.7,1.5c1.2,1,1.8,2.4,1.8,4.3v17.8h-5.5v-2.8c-0.3,1-0.7,1.7-1.3,2.2
		c-0.6,0.5-1.3,0.8-2.2,0.8C135,41.3,133.8,40.7,133.1,39.5z M139.9,36.5c0.2-0.3,0.3-0.8,0.3-1.3v-6.5c-0.8,0.3-1.4,0.7-1.8,1.2
		c-0.4,0.5-0.6,1.2-0.6,2v3c0,1.4,0.4,2.1,1.2,2.1C139.5,37,139.8,36.8,139.9,36.5z"/>
	<path class="st1" d="M148,16.2v-3.9h5.6v3.9H148z M148,41.1V17.7h5.6v23.3L148,41.1L148,41.1z"/>
	<path class="st1" d="M155.2,34.3l0-1.9h5.6l0,2.7c0,0.6,0.1,1,0.3,1.3c0.2,0.3,0.6,0.4,1,0.4c0.7,0,1.1-0.6,1.1-1.8
		c0-0.9-0.2-1.6-0.5-2.1c-0.3-0.5-0.9-1-1.7-1.6l-3-2.3c-1-0.8-1.8-1.6-2.2-2.4c-0.4-0.8-0.7-2-0.7-3.5c0-1.2,0.3-2.2,0.9-3
		c0.6-0.8,1.5-1.5,2.5-1.9c1-0.4,2.2-0.6,3.5-0.6c4.5,0,6.8,2.3,6.8,6.8v0.4h-5.8v-0.9c0-0.6-0.1-1-0.3-1.4
		c-0.2-0.4-0.5-0.6-0.9-0.6c-0.4,0-0.7,0.1-0.9,0.3c-0.2,0.2-0.3,0.5-0.3,0.9c0,0.9,0.3,1.5,1,2l3.4,2.5c1.2,0.9,2.2,1.9,2.8,3
		c0.7,1.1,1,2.4,1,4.1c0,2.2-0.6,3.8-1.9,5c-1.2,1.2-2.9,1.8-5.2,1.8C157.5,41.3,155.2,39,155.2,34.3z"/>
	<path class="st1" d="M171.7,33.6l-1.1-19.9h5.6l-1.1,19.9H171.7z M170.6,41.1v-4.6h5.6v4.6H170.6z"/>
</g>
</svg>
