<?xml version="1.0" encoding="utf-8"?>
<!-- Generator: Adobe Illustrator 28.0.0, SVG Export Plug-In . SVG Version: 6.00 Build 0)  -->
<svg version="1.1" xmlns="http://www.w3.org/2000/svg" xmlns:xlink="http://www.w3.org/1999/xlink" x="0px" y="0px"
	 viewBox="0 0 1107.3 233" style="enable-background:new 0 0 1107.3 233;" xml:space="preserve">
<style type="text/css">
	.st0{fill:#00ADBA;}
	.st1{fill:#FFFFFF;}
	.st2{fill:url(#SVGID_1_);}
	.st3{fill:url(#SVGID_00000141454633636291560010000015753437197707499910_);}
	.st4{fill:#FFD68D;}
	.st5{fill:url(#SVGID_00000007429123243668496650000004799453042479131017_);}
	.st6{fill:url(#SVGID_00000014616090753291610020000010826896283896347543_);}
	.st7{fill:url(#SVGID_00000026848326707575789050000006690017109450029756_);}
</style>
<g id="Background">
</g>
<g id="Objects">
	<g>
		<g>
			<g>
				<g>
					<path class="st0" d="M369.5,103.6l-13.3-19.3h-0.8h-13.9v19.3h-16V34.5h29.9c18.5,0,30,9.6,30,25.1c0,10.4-5.2,18-14.2,21.8
						l15.5,22.2H369.5z M354.4,47.5h-13v24.1h13c9.8,0,14.7-4.5,14.7-12.1C369.2,52,364.2,47.5,354.4,47.5z"/>
					<path class="st0" d="M393.7,69.1c0-20.6,16-35.8,37.8-35.8c21.7,0,37.8,15.1,37.8,35.8s-16.1,35.8-37.8,35.8
						C409.7,104.8,393.7,89.6,393.7,69.1z M453.2,69.1c0-13.1-9.3-22.1-21.6-22.1c-12.4,0-21.6,9-21.6,22.1s9.3,22.1,21.6,22.1
						C443.9,91.2,453.2,82.2,453.2,69.1z"/>
					<path class="st0" d="M494.8,47.5h-22.1v-13h60.3v13h-22.1v56.1h-16V47.5z"/>
					<path class="st0" d="M583.6,88.8h-32.1l-6.1,14.8h-16.4l30.8-69.2h15.8l30.9,69.2h-16.8L583.6,88.8z M578.5,76.7l-11-26.5
						l-11,26.5H578.5z"/>
				</g>
				<g>
					<g>
						<path class="st1" d="M660.9,34.5h16v56.1h34.7v13h-50.7V34.5z"/>
						<path class="st1" d="M774.2,90.8v12.8h-53.6V34.5h52.3v12.8h-36.4v15h32.1v12.5h-32.1v16H774.2z"/>
						<path class="st1" d="M850.3,34.5v69.2h-13.1l-34.5-42v42h-15.8V34.5h13.2l34.4,42v-42H850.3z"/>
						<path class="st1" d="M918.1,83l10.3,9.5c-6.2,7.7-15.7,12-27.1,12.4l-0.9,3.8c6,0.7,8.6,4.1,8.6,8.2c0,6-5.7,9.8-14.5,9.8
							c-3.5,0-6.9-0.8-9.2-2.1l2.4-6.6c1.9,0.9,4,1.5,6.4,1.5c3.7,0,5.1-1.3,5.1-3.2c0-1.7-1.4-2.9-4.8-2.9h-3.4l2.2-9
							c-18-2.8-30.8-16.6-30.8-35.3c0-20.9,16-35.8,37.5-35.8c12,0,21.9,4.4,28.5,12.3L918.1,55c-4.6-5.3-10.5-8.1-17.4-8.1
							c-12.9,0-22.1,9.1-22.1,22.1c0,13,9.2,22.1,22.1,22.1C907.7,91.2,913.5,88.4,918.1,83z"/>
						<path class="st1" d="M933.3,69.1c0-20.6,16-35.8,37.8-35.8c21.7,0,37.8,15.1,37.8,35.8c0,20.7-16.1,35.8-37.8,35.8
							C949.4,104.8,933.3,89.6,933.3,69.1z M992.8,69.1c0-13.1-9.3-22.1-21.6-22.1c-12.4,0-21.6,9-21.6,22.1
							c0,13.1,9.3,22.1,21.6,22.1C983.5,91.2,992.8,82.2,992.8,69.1z M975.5,14.6h16.6l-17.9,14.2h-12.1L975.5,14.6z"/>
						<path class="st1" d="M1021.1,34.5h16v69.2h-16V34.5z"/>
						<path class="st1" d="M1048.1,96.8l5.4-12.1c5.8,4.2,14.5,7.2,22.8,7.2c9.5,0,13.3-3.2,13.3-7.4c0-12.9-40.2-4.1-40.2-29.7
							c0-11.8,9.5-21.5,29.1-21.5c8.7,0,17.6,2.1,24,6.1l-4.9,12.2c-6.4-3.7-13-5.4-19.2-5.4c-9.5,0-13.1,3.6-13.1,7.9
							c0,12.7,40.2,4,40.2,29.3c0,11.6-9.6,21.4-29.3,21.4C1065.2,104.8,1054.2,101.6,1048.1,96.8z"/>
					</g>
					<g>
						<path class="st0" d="M660.9,34.5h16v56.1h34.7v13h-50.7V34.5z"/>
						<path class="st0" d="M774.2,90.8v12.8h-53.6V34.5h52.3v12.8h-36.4v15h32.1v12.5h-32.1v16H774.2z"/>
						<path class="st0" d="M850.3,34.5v69.2h-13.1l-34.5-42v42h-15.8V34.5h13.2l34.4,42v-42H850.3z"/>
						<path class="st0" d="M918.1,83l10.3,9.5c-6.2,7.7-15.7,12-27.1,12.4l-0.9,3.8c6,0.7,8.6,4.1,8.6,8.2c0,6-5.7,9.8-14.5,9.8
							c-3.5,0-6.9-0.8-9.2-2.1l2.4-6.6c1.9,0.9,4,1.5,6.4,1.5c3.7,0,5.1-1.3,5.1-3.2c0-1.7-1.4-2.9-4.8-2.9h-3.4l2.2-9
							c-18-2.8-30.8-16.6-30.8-35.3c0-20.9,16-35.8,37.5-35.8c12,0,21.9,4.4,28.5,12.3L918.1,55c-4.6-5.3-10.5-8.1-17.4-8.1
							c-12.9,0-22.1,9.1-22.1,22.1c0,13,9.2,22.1,22.1,22.1C907.7,91.2,913.5,88.4,918.1,83z"/>
						<path class="st0" d="M933.3,69.1c0-20.6,16-35.8,37.8-35.8c21.7,0,37.8,15.1,37.8,35.8c0,20.7-16.1,35.8-37.8,35.8
							C949.4,104.8,933.3,89.6,933.3,69.1z M992.8,69.1c0-13.1-9.3-22.1-21.6-22.1c-12.4,0-21.6,9-21.6,22.1
							c0,13.1,9.3,22.1,21.6,22.1C983.5,91.2,992.8,82.2,992.8,69.1z M975.5,14.6h16.6l-17.9,14.2h-12.1L975.5,14.6z"/>
						<path class="st0" d="M1021.1,34.5h16v69.2h-16V34.5z"/>
						<path class="st0" d="M1048.1,96.8l5.4-12.1c5.8,4.2,14.5,7.2,22.8,7.2c9.5,0,13.3-3.2,13.3-7.4c0-12.9-40.2-4.1-40.2-29.7
							c0-11.8,9.5-21.5,29.1-21.5c8.7,0,17.6,2.1,24,6.1l-4.9,12.2c-6.4-3.7-13-5.4-19.2-5.4c-9.5,0-13.1,3.6-13.1,7.9
							c0,12.7,40.2,4,40.2,29.3c0,11.6-9.6,21.4-29.3,21.4C1065.2,104.8,1054.2,101.6,1048.1,96.8z"/>
					</g>
				</g>
			</g>
			<g>
				<g>
					<path class="st0" d="M384.9,217.2l-0.1-40.4L365,210.1h-7l-19.7-32.4v39.5h-14.6V150h12.9l25.2,41.8l24.8-41.8h12.8l0.2,67.3
						H384.9z"/>
					<path class="st0" d="M459.8,202.8h-31.2l-6,14.4h-16l30-67.3H452l30.1,67.3h-16.3L459.8,202.8z M454.9,191l-10.7-25.8
						L433.6,191H454.9z"/>
					<path class="st0" d="M532,217.2l-13-18.7h-0.8h-13.6v18.7h-15.6V150h29.1c18,0,29.2,9.3,29.2,24.4c0,10.1-5.1,17.5-13.8,21.2
						l15.1,21.6H532z M517.4,162.6h-12.7v23.5h12.7c9.5,0,14.3-4.4,14.3-11.7C531.7,167,526.9,162.6,517.4,162.6z"/>
					<path class="st0" d="M604.1,202.8h-31.2l-6,14.4h-16l30-67.3h15.4l30.1,67.3H610L604.1,202.8z M599.2,191l-10.7-25.8L577.8,191
						H599.2z"/>
					<path class="st0" d="M695.1,150v67.3h-12.8l-33.5-40.8v40.8h-15.4V150h12.9l33.4,40.8V150H695.1z"/>
					<path class="st0" d="M772.7,150v67.3h-15.6v-27.6h-30.6v27.6H711V150h15.6v26.5h30.6V150H772.7z"/>
					<path class="st0" d="M840.8,204.7v12.5h-52.1V150h50.8v12.5h-35.4v14.6h31.2v12.1h-31.2v15.6H840.8z"/>
					<path class="st0" d="M914.9,150v67.3h-12.8l-33.5-40.8v40.8h-15.4V150H866l33.4,40.8V150H914.9z"/>
					<path class="st0" d="M925.5,210.6l5.3-11.7c5.7,4.1,14.1,7,22.2,7c9.2,0,13-3.1,13-7.2c0-12.6-39.1-3.9-39.1-28.9
						c0-11.4,9.2-21,28.4-21c8.5,0,17.1,2,23.4,6l-4.8,11.8c-6.2-3.6-12.7-5.3-18.6-5.3c-9.2,0-12.8,3.5-12.8,7.7
						c0,12.4,39.1,3.8,39.1,28.5c0,11.2-9.3,20.9-28.5,20.9C942.2,218.4,931.5,215.2,925.5,210.6z"/>
					<path class="st0" d="M1044.2,204.7v12.5h-52.1V150h50.8v12.5h-35.4v14.6h31.2v12.1h-31.2v15.6H1044.2z"/>
					<path class="st0" d="M1051.3,210.6l5.3-11.7c5.7,4.1,14.1,7,22.2,7c9.2,0,13-3.1,13-7.2c0-12.6-39.1-3.9-39.1-28.9
						c0-11.4,9.2-21,28.4-21c8.5,0,17.1,2,23.4,6l-4.8,11.8c-6.2-3.6-12.7-5.3-18.6-5.3c-9.2,0-12.8,3.5-12.8,7.7
						c0,12.4,39.1,3.8,39.1,28.5c0,11.2-9.3,20.9-28.5,20.9C1068,218.4,1057.3,215.2,1051.3,210.6z"/>
				</g>
			</g>
		</g>
		<g>
			
				<linearGradient id="SVGID_1_" gradientUnits="userSpaceOnUse" x1="271.1148" y1="172.0638" x2="10.6051" y2="172.0638" gradientTransform="matrix(0.9998 2.270000e-02 -1.440000e-02 0.9999 4.5184 -6.4006)">
				<stop  offset="0" style="stop-color:#29D0E2"/>
				<stop  offset="0.3216" style="stop-color:#46CBDC"/>
				<stop  offset="1" style="stop-color:#8DBFCC"/>
			</linearGradient>
			<path class="st2" d="M6.4,171.4c2.9,0.7,5.6,1.7,8.3,2.4c2.7,0.7,5.5,1.3,8.2,1.9l8.1,1.2c2.7,0.3,5.4,0.4,8.1,0.6
				c10.7,0.3,21.1-1.2,31.5-3.8c20.7-5.2,41.1-14.4,63.2-21.8c11-3.7,22.4-7,34.2-8.9c11.8-2,24-2.4,36.1-0.8
				c12.1,1.7,23.9,5.8,34.5,11.9c2.7,1.4,5.3,3.2,7.8,4.9l3.8,2.6c1.2,1,2.4,2,3.5,3c2.3,2.1,4.7,3.9,6.9,6.2
				c2.1,2.3,4.3,4.5,6.3,6.8c-5.5-2.2-10.7-4.7-16.1-6.6l-4-1.5l-4-1.2c-2.7-0.8-5.3-1.7-8-2.2c-10.6-2.6-21.2-3.7-31.6-3.2
				c-21,0.7-41.4,7.3-62.6,14.7c-21.1,7.3-43.3,15.8-67.5,17.4c-12,0.8-24.4-0.3-36-4.3C25.6,187.1,15,180.3,6.4,171.4z"/>
			
				<linearGradient id="SVGID_00000092448347061372216480000017846513980240066231_" gradientUnits="userSpaceOnUse" x1="134.7506" y1="14.1896" x2="134.7506" y2="274.6592" gradientTransform="matrix(0.9035 7.080000e-02 -8.590000e-02 1.0963 54.4755 -48.6295)">
				<stop  offset="0" style="stop-color:#29D0E2"/>
				<stop  offset="0.3216" style="stop-color:#46CBDC"/>
				<stop  offset="1" style="stop-color:#8DBFCC"/>
			</linearGradient>
			<path style="fill:url(#SVGID_00000092448347061372216480000017846513980240066231_);" d="M21.7,202.8c2.9,1,5.7,2.1,8.5,3.1
				c2.8,1,5.6,1.7,8.4,2.6l8.4,1.8c2.8,0.5,5.6,0.7,8.3,1.1c11.1,0.9,22-0.1,32.9-2.4c21.8-4.5,43.6-13.5,67-20.4
				c11.7-3.4,23.7-6.4,36.1-7.9c12.4-1.5,25.1-1.3,37.5,1.2c12.4,2.6,24.3,7.7,34.9,15c2.7,1.7,5.2,3.8,7.7,5.9l3.7,3.1
				c1.2,1.1,2.3,2.3,3.5,3.5c2.2,2.4,4.6,4.5,6.7,7.2c2,2.6,4.1,5.2,6.1,7.8c-5.6-2.7-10.7-5.8-16.2-8.1l-4-1.8l-4.1-1.5
				c-2.7-1-5.3-2.2-8.1-2.9c-10.8-3.4-21.7-5.2-32.6-5.3c-21.8-0.4-43.4,5.7-65.9,12.6c-22.4,6.8-46,14.9-71.2,15.4
				c-12.5,0.2-25.2-1.7-37-6.7C40.5,221.1,29.9,213.2,21.7,202.8z"/>
			<path class="st4" d="M195.7,129c-71.2,0.3-108.3,24.4-129.1,29.6c-10.4,2.6-20.9,4.1-31.6,3.8c-2.7-0.2-5.4-0.3-8.1-0.6l-8.2-1.2
				c-2.7-0.6-5.5-1.2-8.2-1.9c-2.1-0.6-6.3-2.2-9.4-3.2c5.9-6.9,18.7-16.7,39.2-25.1s35.5-11.6,55.1-13.5
				C142.3,112.3,189.1,126.6,195.7,129z"/>
			<path class="st4" d="M82.5,105.6c41.3-7.7,72.4-2.5,97.8,4.2c29.6,7.8,63,23.2,72.7,35.6c-4.1-34.2-36.2-63-74.4-70.4
				C121.3,63.9,88.4,96.9,82.5,105.6z"/>
			
				<linearGradient id="SVGID_00000062872573197014489410000000368809858136276630_" gradientUnits="userSpaceOnUse" x1="23.9569" y1="28.137" x2="80.231" y2="28.137">
				<stop  offset="0" style="stop-color:#FFD552"/>
				<stop  offset="1" style="stop-color:#FF992A"/>
			</linearGradient>
			<circle style="fill:url(#SVGID_00000062872573197014489410000000368809858136276630_);" cx="52.1" cy="28.1" r="28.1"/>
			<g>
				
					<linearGradient id="SVGID_00000013898210875821171680000016057775107570178461_" gradientUnits="userSpaceOnUse" x1="0" y1="99.26" x2="37.4982" y2="99.26">
					<stop  offset="0" style="stop-color:#29D0E2"/>
					<stop  offset="0.2114" style="stop-color:#29CDE2"/>
					<stop  offset="0.3812" style="stop-color:#29C3E2"/>
					<stop  offset="0.5365" style="stop-color:#29B2E2"/>
					<stop  offset="0.6833" style="stop-color:#299AE2"/>
					<stop  offset="0.824" style="stop-color:#297BE2"/>
					<stop  offset="0.9583" style="stop-color:#2956E2"/>
					<stop  offset="1" style="stop-color:#2949E2"/>
				</linearGradient>
				<path style="fill:url(#SVGID_00000013898210875821171680000016057775107570178461_);" d="M26.2,57.6C9.8,78.7,0,105.1,0,133.8
					c0,2.4,0.1,4.7,0.2,7.1c1.6-2.1,10.5-8.6,12.9-9.6c0.6-25.2,9.6-48.3,24.3-66.7C33.3,62.9,29.5,60.5,26.2,57.6z"/>
				
					<linearGradient id="SVGID_00000025426411329290665670000012771814755074245264_" gradientUnits="userSpaceOnUse" x1="89.012" y1="50.0161" x2="240.2498" y2="50.0161">
					<stop  offset="0" style="stop-color:#29D0E2"/>
					<stop  offset="0.2114" style="stop-color:#29CDE2"/>
					<stop  offset="0.3812" style="stop-color:#29C3E2"/>
					<stop  offset="0.5365" style="stop-color:#29B2E2"/>
					<stop  offset="0.6833" style="stop-color:#299AE2"/>
					<stop  offset="0.824" style="stop-color:#297BE2"/>
					<stop  offset="0.9583" style="stop-color:#2956E2"/>
					<stop  offset="1" style="stop-color:#2949E2"/>
				</linearGradient>
				<path style="fill:url(#SVGID_00000025426411329290665670000012771814755074245264_);" d="M124.1,9.8c-12.2,0-23.9,1.8-35.1,5.1
					c1.5,4.1,2.3,8.4,2.4,13c10.3-3.2,21.3-4.9,32.7-4.9c37,0,69.7,18.2,89.9,46.1c12.9,8.1,22,17.1,26.3,21.3
					C222.6,43.2,177.3,9.8,124.1,9.8z"/>
			</g>
			<path d="M72.7,67.1c-2.6,0-4.9,1-6.6,2.6c-1.8-1.6-4.1-2.5-6.7-2.5c-5.5,0-10,4.5-10,10c0,0,0,0,0,0.1c0,0.2,0.1,0.3,0.3,0.4
				c0.2,0,0.4-0.1,0.4-0.2c1.5-3.3,5.1-4.8,9.2-4.8c2.6,0,4.9,1,6.7,2.5c1.8-1.6,4.1-2.6,6.6-2.6c4.2,0,7.7,1.5,9.2,4.8
				c0.1,0.2,0.3,0.3,0.4,0.2c0.2,0,0.3-0.2,0.3-0.4c0,0,0,0,0-0.1C82.6,71.6,78.2,67.1,72.7,67.1z"/>
			<path d="M118.4,59.5c-1.8-0.4-3.5-0.1-5,0.7c-1-1.4-2.4-2.4-4.2-2.8c-3.8-0.9-7.6,1.5-8.5,5.3c0,0,0,0,0,0c0,0.1,0,0.3,0.2,0.3
				c0.1,0.1,0.3,0,0.3-0.1c1.6-2,4.3-2.5,7.1-1.8c1.8,0.4,3.2,1.5,4.2,2.8c1.5-0.8,3.2-1.1,5-0.7c2.9,0.7,5.2,2.3,5.7,4.9
				c0,0.1,0.1,0.2,0.2,0.2c0.1,0,0.2-0.1,0.3-0.2c0-0.1,0-0.1,0-0.2C124.6,64.2,122.2,60.4,118.4,59.5z"/>
			<path d="M87.5,45.5c0.1,0,0.2,0,0.2-0.1c0.6-1.4,2.1-2.1,3.9-2.1c1.1,0,2.1,0.4,2.9,1c0.7-0.7,1.7-1.1,2.8-1.2
				c1.8,0,3.3,0.5,4,1.9c0,0.1,0.1,0.1,0.2,0.1c0.1,0,0.1-0.1,0.1-0.2c-0.1-2.3-2-4.2-4.4-4.1c-1.1,0-2.1,0.5-2.8,1.2
				c-0.8-0.7-1.8-1-2.9-1c-2.3,0.1-4.2,2-4.1,4.4C87.3,45.4,87.4,45.5,87.5,45.5z"/>
			<path d="M124.3,33.8c0.6,0.3,1,0.9,1.2,1.5c0.6-0.1,1.3,0,1.9,0.3c1,0.6,1.6,1.4,1.5,2.5c0,0,0,0.1,0.1,0.1c0,0,0.1,0,0.1,0
				c0,0,0-0.1,0.1-0.1c0.7-1.3,0.3-2.9-1-3.7c-0.6-0.3-1.3-0.4-1.9-0.3c-0.2-0.6-0.6-1.1-1.2-1.5c-1.3-0.7-2.9-0.3-3.7,1
				c0,0,0,0.1,0,0.1c0,0,0.1,0,0.1,0C122.3,33.1,123.4,33.3,124.3,33.8z"/>
		</g>
	</g>
</g>
</svg>
