<svg width="358" height="39" viewBox="0 0 358 39" fill="none" xmlns="http://www.w3.org/2000/svg">
<path d="M27.5902 37.3074C24.9569 37.3074 22.6569 36.5241 20.6902 34.9574C19.7569 34.1907 18.7402 33.1741 17.6402 31.9074C16.5402 30.6741 15.4736 29.3407 14.4402 27.9074C13.4069 26.4407 12.4902 25.0741 11.6902 23.8074C10.2902 24.0407 8.99023 24.1907 7.79024 24.2574C7.12357 25.5241 6.5569 26.7407 6.09023 27.9074C5.62357 29.0741 5.27357 30.1907 5.04023 31.2574C5.0069 31.4574 4.97357 31.6241 4.94023 31.7574C4.94023 31.8907 4.94023 31.9907 4.94023 32.0574C4.94023 32.6574 5.0569 33.1741 5.29023 33.6074C5.52357 34.0741 5.79023 34.3241 6.09023 34.3574C6.3569 34.3907 6.57357 34.4574 6.74023 34.5574C6.9069 34.6574 7.02357 34.7741 7.09023 34.9074V35.0074C7.09023 35.2407 6.8069 35.3574 6.24023 35.3574C4.34023 35.3574 3.39023 34.4907 3.39023 32.7574C3.39023 32.6241 3.4069 32.4241 3.44023 32.1574C3.47357 31.9241 3.52357 31.6241 3.59023 31.2574C4.02357 29.1241 4.8569 26.7741 6.09023 24.2074C5.52357 24.0407 4.9069 23.7907 4.24023 23.4574C3.6069 23.1241 3.07357 22.6407 2.64023 22.0074C2.2069 21.3407 1.99023 20.4574 1.99023 19.3574C1.99023 18.1907 2.27357 17.2241 2.84023 16.4574C3.4069 15.6574 4.17357 15.2574 5.14023 15.2574C5.9069 15.2574 6.7569 15.5407 7.69023 16.1074C7.7569 16.1407 7.84023 16.2074 7.94023 16.3074C8.07357 16.4074 8.2569 16.5241 8.49023 16.6574C8.8569 16.8907 9.2569 17.2741 9.69024 17.8074C10.5236 16.5741 11.3736 15.4074 12.2402 14.3074C13.1402 13.1741 14.0569 12.0907 14.9902 11.0574C15.1236 10.9241 15.1902 10.7407 15.1902 10.5074V10.3074C15.1902 10.0741 15.2402 9.90739 15.3402 9.80739C15.6069 9.54072 16.1569 9.24072 16.9902 8.90739C17.1569 8.80739 17.2569 8.70739 17.2902 8.60739C17.4569 8.40739 17.6902 8.30739 17.9902 8.30739C18.4569 8.30739 18.8902 8.47406 19.2902 8.80739C19.6902 9.10739 19.7569 9.39072 19.4902 9.65739L18.5902 10.6074C17.8236 11.3741 16.9402 12.3074 15.9402 13.4074C15.0736 14.3407 14.2236 15.3074 13.3902 16.3074C12.5569 17.2741 11.7569 18.2907 10.9902 19.3574C11.2569 19.7574 11.5569 20.2074 11.8902 20.7074C12.2236 21.2074 12.5569 21.7407 12.8902 22.3074C14.9236 21.9407 16.8069 21.4741 18.5402 20.9074C20.3069 20.3074 22.0569 19.5241 23.7902 18.5574C25.9569 17.3574 27.6069 16.0574 28.7402 14.6574C29.8736 13.2574 30.4402 11.9074 30.4402 10.6074C30.4402 9.04072 29.6236 7.75739 27.9902 6.75739C26.3902 5.72406 24.1236 5.20739 21.1902 5.20739C20.2569 5.20739 19.2569 5.27406 18.1902 5.40739C17.1236 5.54072 15.9736 5.74072 14.7402 6.00739C12.3069 6.54072 9.87357 7.44072 7.44024 8.70739C5.0069 9.97406 2.99023 11.5741 1.39023 13.5074C1.02357 13.9407 0.706901 14.0241 0.440234 13.7574C0.340234 13.6241 0.323568 13.4074 0.390234 13.1074C0.423568 12.8741 0.606901 12.5074 0.940234 12.0074C2.04023 10.4407 3.84023 9.04072 6.34023 7.80739C8.0069 6.94072 9.7569 6.20739 11.5902 5.60739C13.4236 5.00739 15.1902 4.54072 16.8902 4.20739C18.5902 3.87406 20.0569 3.70739 21.2902 3.70739C23.6902 3.70739 25.8236 3.99072 27.6902 4.55739C31.3236 5.72406 33.1402 7.59072 33.1402 10.1574C33.1402 11.5574 32.5236 13.0074 31.2902 14.5074C30.0569 15.9741 28.2236 17.3907 25.7902 18.7574C24.2902 19.5907 22.4402 20.4407 20.2402 21.3074C18.0402 22.1407 15.8236 22.8407 13.5902 23.4074C13.8902 23.9407 14.3402 24.6074 14.9402 25.4074C15.5402 26.2074 16.1902 27.0407 16.8902 27.9074C17.6236 28.7407 18.3402 29.5407 19.0402 30.3074C19.7402 31.0407 20.3402 31.6407 20.8402 32.1074C23.5736 34.6407 26.3736 35.9074 29.2402 35.9074C31.9402 35.9074 34.2402 34.7574 36.1402 32.4574C36.2069 32.3907 36.2902 32.3574 36.3902 32.3574C36.5236 32.3574 36.6236 32.4241 36.6902 32.5574C36.7902 32.6907 36.7902 32.8407 36.6902 33.0074C35.4902 34.4407 34.0902 35.5074 32.4902 36.2074C30.9236 36.9407 29.2902 37.3074 27.5902 37.3074ZM6.89023 22.5574C7.0569 22.2241 7.29023 21.7907 7.59023 21.2574C7.92357 20.6907 8.3069 20.0407 8.74023 19.3074C8.07357 18.4407 7.34023 17.8074 6.54023 17.4074C5.77357 16.9741 5.0069 16.7574 4.24023 16.7574C3.57357 16.7574 3.24023 17.1407 3.24023 17.9074C3.24023 19.1074 3.54023 20.1241 4.14023 20.9574C4.74023 21.7574 5.6569 22.2907 6.89023 22.5574ZM8.74023 22.7074C8.97357 22.7074 9.27357 22.7074 9.64024 22.7074C10.0069 22.6741 10.4569 22.6407 10.9902 22.6074L9.89023 20.9074C9.6569 21.2407 9.44023 21.5574 9.24024 21.8574C9.07357 22.1574 8.9069 22.4407 8.74023 22.7074ZM28.6574 31.9574C27.3574 31.9574 26.7074 31.3741 26.7074 30.2074C26.7074 30.1407 26.7074 30.0241 26.7074 29.8574C26.7408 29.6907 26.7741 29.4907 26.8074 29.2574C27.1408 27.8907 27.8074 26.5741 28.8074 25.3074C29.8408 24.0074 31.0241 22.8741 32.3574 21.9074C32.8574 21.5074 33.6574 21.3074 34.7574 21.3074C35.3908 21.3074 35.9408 21.4074 36.4074 21.6074C36.9074 21.7741 37.2574 22.0407 37.4574 22.4074C37.6574 22.7407 37.7574 23.1241 37.7574 23.5574C37.7574 23.6241 37.7408 23.7241 37.7074 23.8574C37.7074 23.9907 37.6908 24.1407 37.6574 24.3074C37.7241 24.2741 37.8241 24.2574 37.9574 24.2574C38.1241 24.2574 38.3241 24.2407 38.5574 24.2074C38.7908 24.1741 39.0074 24.1407 39.2074 24.1074C39.4408 24.0741 39.6741 24.0574 39.9074 24.0574H40.1074C40.4741 24.0574 40.5074 24.2074 40.2074 24.5074C39.9408 24.7741 39.5741 24.9407 39.1074 25.0074L37.4074 25.2074C37.0741 26.1407 36.4908 27.0741 35.6574 28.0074C34.8574 28.9407 33.9574 29.7574 32.9574 30.4574C31.9908 31.1241 31.0741 31.5574 30.2074 31.7574C29.7074 31.8907 29.1908 31.9574 28.6574 31.9574ZM35.0574 24.5074C35.2574 24.5074 35.4908 24.5074 35.7574 24.5074C36.0574 24.4741 36.3908 24.4407 36.7574 24.4074C36.7908 24.3407 36.8074 24.1907 36.8074 23.9574C36.8074 23.3574 36.5574 22.9407 36.0574 22.7074C35.7908 22.5407 35.4574 22.4574 35.0574 22.4574C34.5574 22.4574 34.0408 22.6241 33.5074 22.9574C33.0074 23.2574 32.4741 23.6574 31.9074 24.1574C32.6074 24.3907 33.6574 24.5074 35.0574 24.5074ZM30.1574 30.2074C30.4908 30.2074 30.9574 30.0574 31.5574 29.7574C32.1908 29.4241 32.8408 28.9907 33.5074 28.4574C34.1741 27.9241 34.7741 27.3574 35.3074 26.7574C35.4741 26.5907 35.6408 26.3907 35.8074 26.1574C35.9741 25.8907 36.1574 25.6241 36.3574 25.3574L35.1574 25.5074C33.2908 25.7741 31.6241 25.9241 30.1574 25.9574C29.4241 27.1574 28.9741 28.1574 28.8074 28.9574C28.7741 29.3907 28.8908 29.7074 29.1574 29.9074C29.4241 30.1074 29.7574 30.2074 30.1574 30.2074ZM39.3238 35.7574C39.1572 35.7574 39.0738 35.6074 39.0738 35.3074C39.0738 35.2407 39.0738 35.1407 39.0738 35.0074C39.1072 34.9074 39.1405 34.7907 39.1738 34.6574L41.3238 29.2574L43.8738 22.9574C43.4738 22.9241 42.8905 22.9407 42.1238 23.0074C41.3572 23.0407 40.7072 23.1074 40.1738 23.2074C39.9738 23.2407 39.8072 23.2741 39.6738 23.3074C39.5738 23.3074 39.4905 23.3074 39.4238 23.3074C39.1572 23.3074 38.9738 23.1907 38.8738 22.9574C38.9072 22.7574 39.0905 22.5741 39.4238 22.4074C39.5905 22.3407 39.7905 22.2907 40.0238 22.2574C40.2572 22.1907 40.5405 22.1241 40.8738 22.0574C41.2405 21.9907 41.5572 21.9407 41.8238 21.9074C42.1238 21.8741 42.3405 21.8407 42.4738 21.8074C42.6405 21.7741 42.8072 21.7407 42.9738 21.7074C43.1405 21.6741 43.3405 21.6407 43.5738 21.6074C43.7738 21.5741 43.9905 21.5407 44.2238 21.5074C44.4572 21.4741 44.7072 21.4241 44.9738 21.3574C45.2405 20.9907 45.6405 20.3407 46.1738 19.4074C46.7072 18.4741 47.3905 17.2407 48.2238 15.7074C48.8905 14.4741 49.4238 13.5074 49.8238 12.8074C50.2572 12.0741 50.5572 11.5907 50.7238 11.3574C51.0238 10.9574 51.3738 10.7574 51.7738 10.7574C51.9738 10.7574 52.0738 10.8407 52.0738 11.0074C52.0738 11.0407 51.9905 11.2574 51.8238 11.6574C51.6238 11.9907 51.2905 12.6074 50.8238 13.5074C50.3572 14.4074 49.8572 15.3907 49.3238 16.4574C48.7905 17.5241 48.3072 18.5241 47.8738 19.4574C47.4405 20.3907 47.1405 21.0741 46.9738 21.5074C47.1405 21.4741 47.3238 21.4574 47.5238 21.4574C47.7572 21.4574 48.0405 21.4574 48.3738 21.4574C48.7405 21.4574 49.0738 21.4741 49.3738 21.5074C49.7072 21.5074 49.9905 21.5241 50.2238 21.5574C50.6905 21.6574 50.9238 21.7907 50.9238 21.9574C50.9238 22.0241 50.7738 22.1407 50.4738 22.3074C50.3072 22.3741 49.9905 22.4407 49.5238 22.5074C49.0572 22.5741 48.4405 22.6407 47.6738 22.7074C47.4738 22.7074 47.2572 22.7241 47.0238 22.7574C46.7905 22.7574 46.5405 22.7741 46.2738 22.8074C45.2738 24.4407 43.9072 27.1574 42.1738 30.9574C41.5405 32.2241 41.0572 33.2074 40.7238 33.9074C40.3905 34.6074 40.1905 35.0241 40.1238 35.1574C39.8238 35.5574 39.5572 35.7574 39.3238 35.7574ZM56.8313 32.4574C56.7646 32.4574 56.6979 32.4407 56.6313 32.4074C56.5646 32.4074 56.4979 32.3907 56.4313 32.3574C55.9646 32.1241 55.6646 31.7907 55.5313 31.3574C55.3979 30.9241 55.3646 30.3741 55.4313 29.7074C55.4979 29.4407 55.5646 28.9741 55.6313 28.3074C55.7313 27.6407 55.8479 27.1074 55.9813 26.7074L53.4313 29.1574L52.0313 30.5074C51.0646 31.4741 50.2646 31.9574 49.6313 31.9574C49.3646 31.9574 49.1479 31.8574 48.9813 31.6574C48.6813 31.2907 48.5313 30.8407 48.5313 30.3074C48.5313 29.6074 48.7146 28.8574 49.0813 28.0574C49.4479 27.2574 49.8813 26.4907 50.3813 25.7574C50.8813 24.9907 51.3313 24.3574 51.7313 23.8574C52.7313 22.6241 53.6979 21.6574 54.6312 20.9574C55.5979 20.2574 56.5979 19.9074 57.6313 19.9074C58.1979 19.9074 58.7479 20.0074 59.2813 20.2074C59.8479 20.4074 60.3646 20.7407 60.8313 21.2074L60.8812 21.2574C60.8812 21.3574 60.7979 21.4574 60.6313 21.5574C60.5646 21.6241 60.4979 21.6741 60.4313 21.7074C60.3979 21.7407 60.3646 21.7741 60.3313 21.8074C59.9313 22.2074 59.4813 22.8741 58.9813 23.8074C58.4813 24.7407 58.0479 25.7241 57.6813 26.7574C57.3146 27.7574 57.1313 28.6241 57.1313 29.3574C57.1313 30.0241 57.2979 30.4741 57.6313 30.7074C57.7979 30.8074 57.9813 30.8574 58.1813 30.8574C58.6146 30.8574 59.2146 30.5907 59.9813 30.0574C60.0146 30.0241 60.0813 29.9741 60.1813 29.9074C60.3146 29.8074 60.4979 29.6741 60.7313 29.5074C60.9979 29.3074 61.2146 29.2074 61.3813 29.2074C61.5479 29.2074 61.6313 29.2741 61.6313 29.4074C61.6313 29.6074 61.4979 29.8407 61.2312 30.1074C61.0313 30.2741 60.7979 30.4574 60.5312 30.6574C60.2979 30.8574 60.0146 31.0574 59.6813 31.2574C59.1813 31.6241 58.6646 31.9074 58.1313 32.1074C57.5979 32.3407 57.1646 32.4574 56.8313 32.4574ZM51.1813 29.2574C51.8813 29.2574 53.1813 28.2241 55.0813 26.1574C55.5813 25.5907 56.0313 25.0574 56.4313 24.5574C56.8313 24.0241 57.1979 23.5074 57.5313 23.0074C58.1313 22.0407 58.3313 21.3741 58.1313 21.0074C58.0313 20.8074 57.8313 20.7074 57.5313 20.7074C57.1646 20.7074 56.6646 20.9074 56.0313 21.3074C55.3979 21.6741 54.7479 22.1574 54.0813 22.7574C53.4479 23.3574 52.8646 23.9574 52.3313 24.5574C51.9646 25.0241 51.5979 25.6741 51.2313 26.5074C50.8646 27.3407 50.6813 28.0241 50.6813 28.5574C50.6813 29.0241 50.8479 29.2574 51.1813 29.2574ZM69.0711 37.8574C68.8378 37.8574 68.6211 37.8074 68.4211 37.7074C67.9544 37.4074 67.7211 36.9907 67.7211 36.4574C67.7211 36.2241 67.7711 36.0074 67.8711 35.8074C68.0711 35.4074 68.5211 34.9074 69.2211 34.3074C69.9211 33.7074 70.6711 33.1741 71.4711 32.7074C71.8044 32.2741 72.0711 31.8741 72.2711 31.5074C72.4711 31.1407 72.6211 30.8241 72.7211 30.5574C73.4878 29.1574 74.2711 27.8574 75.0711 26.6574C75.8711 25.4574 76.6711 24.3407 77.4711 23.3074C76.6711 22.7407 76.2711 21.9407 76.2711 20.9074C76.2711 20.0407 76.4878 19.1574 76.9211 18.2574C77.1878 17.6907 77.4211 17.3407 77.6211 17.2074C77.8544 17.0741 78.0044 17.0407 78.0711 17.1074C78.1378 17.1074 78.1711 17.2407 78.1711 17.5074C78.1711 17.7407 78.0878 18.0574 77.9211 18.4574C77.7878 18.6907 77.7211 19.0074 77.7211 19.4074C77.7211 20.2407 78.1044 20.9407 78.8711 21.5074C79.4044 20.8741 79.8878 20.2407 80.3211 19.6074C81.6544 17.8741 82.9211 16.2741 84.1211 14.8074C85.3211 13.3074 86.4878 11.9241 87.6211 10.6574C89.0878 8.99072 90.6878 7.40739 92.4211 5.90739C94.1544 4.40739 95.9211 3.19072 97.7211 2.25739C99.5211 1.32406 101.254 0.85739 102.921 0.85739C104.121 0.85739 105.071 1.09072 105.771 1.55739C106.504 2.02406 106.871 2.70739 106.871 3.60739C106.871 4.34072 106.588 5.22406 106.021 6.25739C105.421 7.29072 104.604 8.42406 103.571 9.65739C102.571 10.8907 101.338 12.2241 99.8711 13.6574C97.9378 15.5907 95.8711 17.3741 93.6711 19.0074C91.5044 20.6074 89.3544 21.9074 87.2211 22.9074C85.1211 23.8741 83.1878 24.3574 81.4211 24.3574C80.3544 24.3574 79.4711 24.1907 78.7711 23.8574C77.9378 24.9241 77.1544 26.0074 76.4211 27.1074C75.6878 28.1741 75.0044 29.2407 74.3711 30.3074C74.3378 30.5407 74.1044 31.0074 73.6711 31.7074C75.2711 30.8407 77.2044 30.1241 79.4711 29.5574C81.7378 28.9907 84.1044 28.5574 86.5711 28.2574C89.0711 27.9574 91.4044 27.8241 93.5711 27.8574C94.9378 27.8574 95.9711 28.1907 96.6711 28.8574C97.4044 29.4907 97.7711 30.2407 97.7711 31.1074C97.7711 31.2074 97.7544 31.3241 97.7211 31.4574C97.7211 31.5907 97.7044 31.7407 97.6711 31.9074C97.6378 32.4407 97.5044 32.9074 97.2711 33.3074C97.0711 33.7407 96.8378 33.9574 96.5711 33.9574C96.2044 33.9574 95.9711 33.4574 95.8711 32.4574C95.6378 31.5907 95.3211 30.9407 94.9211 30.5074C94.5211 30.0741 93.7544 29.8574 92.6211 29.8574C84.6878 29.9241 78.0044 31.4241 72.5711 34.3574C72.3044 34.8907 72.0378 35.3574 71.7711 35.7574C71.5044 36.1574 71.2544 36.4907 71.0211 36.7574C70.3878 37.4907 69.7378 37.8574 69.0711 37.8574ZM82.3211 22.4074C84.8544 22.4074 87.6211 21.5074 90.6211 19.7074C92.6211 18.5074 94.5211 17.1241 96.3211 15.5574C98.1544 13.9574 99.7878 12.3074 101.221 10.6074C102.688 8.90739 103.838 7.32406 104.671 5.85739C105.204 4.92406 105.471 4.17406 105.471 3.60739C105.471 2.87406 104.988 2.50739 104.021 2.50739C103.688 2.50739 103.288 2.55739 102.821 2.65739C100.688 3.09072 98.1544 4.47406 95.2211 6.80739C93.2878 8.34072 91.3878 10.0074 89.5211 11.8074C87.6878 13.5741 85.9544 15.3574 84.3211 17.1574C82.7211 18.9241 81.3044 20.5741 80.0711 22.1074C80.8378 22.3074 81.5878 22.4074 82.3211 22.4074ZM103.393 31.6574C102.693 31.6574 102.076 31.4741 101.543 31.1074C100.676 30.4407 100.243 29.4407 100.243 28.1074C100.243 26.7741 100.709 25.3574 101.643 23.8574C102.576 22.3574 103.993 20.9741 105.893 19.7074C106.226 19.4741 106.676 19.3574 107.243 19.3574C107.976 19.3574 108.626 19.5574 109.193 19.9574C109.793 20.3574 110.026 20.8741 109.893 21.5074C109.659 22.5407 109.143 23.4574 108.343 24.2574C107.576 25.0574 106.659 25.7741 105.593 26.4074C104.559 27.0074 103.493 27.5907 102.393 28.1574C102.359 28.2574 102.326 28.3574 102.293 28.4574C102.293 28.5574 102.293 28.6574 102.293 28.7574C102.293 29.2241 102.443 29.6407 102.743 30.0074C103.076 30.3407 103.526 30.5074 104.093 30.5074C104.526 30.5074 104.893 30.4407 105.193 30.3074C105.726 30.1074 106.159 29.9241 106.493 29.7574C106.859 29.5907 107.276 29.3407 107.743 29.0074C108.209 28.6741 108.843 28.1741 109.643 27.5074C110.009 27.2407 110.226 27.1074 110.293 27.1074C110.493 27.1074 110.559 27.2574 110.493 27.5574C110.159 28.0907 109.576 28.6741 108.743 29.3074C107.943 29.9407 107.043 30.4907 106.043 30.9574C105.076 31.4241 104.193 31.6574 103.393 31.6574ZM102.693 26.8074C102.959 26.8074 103.509 26.5407 104.343 26.0074C105.176 25.4741 105.959 24.8907 106.693 24.2574C107.959 23.0907 108.593 22.1907 108.593 21.5574C108.593 21.3907 108.543 21.2407 108.443 21.1074C108.343 20.9407 108.193 20.8574 107.993 20.8574C107.359 20.8574 106.293 21.6074 104.793 23.1074C103.759 24.1074 103.059 25.3407 102.693 26.8074ZM110.705 31.9074C110.105 31.9074 109.805 31.6741 109.805 31.2074C109.805 30.9074 109.905 30.5241 110.105 30.0574C110.338 29.5907 110.571 29.1407 110.805 28.7074C111.438 27.5741 112.021 26.4741 112.555 25.4074C113.088 24.3407 113.605 23.2074 114.105 22.0074C114.338 21.4741 114.688 21.2074 115.155 21.2074C115.655 21.2074 115.805 21.5074 115.605 22.1074C115.405 22.6074 115.205 23.0574 115.005 23.4574C114.071 25.3574 113.605 26.6407 113.605 27.3074C113.605 27.6074 113.705 27.7907 113.905 27.8574C114.371 27.4907 114.721 27.2241 114.955 27.0574C115.188 26.8574 115.321 26.7407 115.355 26.7074C115.821 26.3407 116.338 25.9241 116.905 25.4574C117.505 24.9574 118.155 24.3907 118.855 23.7574C119.955 22.7574 120.871 22.2574 121.605 22.2574C122.505 22.2574 122.888 23.0741 122.755 24.7074C122.721 25.3407 122.721 25.9574 122.755 26.5574C122.788 26.6907 122.805 26.8907 122.805 27.1574C122.805 27.3907 122.805 27.6741 122.805 28.0074C122.805 28.3407 123.005 28.5074 123.405 28.5074C123.871 28.5074 124.305 28.3741 124.705 28.1074L125.805 27.3574L126.905 26.6574C126.971 26.6241 127.088 26.6074 127.255 26.6074C127.455 26.6074 127.455 26.7574 127.255 27.0574C125.155 29.6574 123.421 30.9574 122.055 30.9574C121.788 30.9574 121.521 30.9074 121.255 30.8074C121.021 30.7074 120.855 30.4241 120.755 29.9574C120.655 29.4574 120.588 28.9241 120.555 28.3574C120.555 27.7907 120.555 27.3574 120.555 27.0574L120.605 25.4074C120.605 24.7074 120.421 24.3574 120.055 24.3574C119.188 24.3574 117.055 26.1407 113.655 29.7074C113.388 30.0407 112.971 30.4907 112.405 31.0574C111.838 31.6241 111.271 31.9074 110.705 31.9074ZM129.649 32.1074C128.849 32.1074 128.233 31.8574 127.799 31.3574C127.399 30.8907 127.199 30.2741 127.199 29.5074C127.199 28.1407 127.699 26.8074 128.699 25.5074C129.499 24.4741 130.383 23.5407 131.349 22.7074C132.349 21.8407 133.316 21.1574 134.249 20.6574C135.216 20.1241 136.033 19.8574 136.699 19.8574C137.333 19.8574 137.749 20.1241 137.949 20.6574C138.083 20.9241 138.149 21.2407 138.149 21.6074C138.149 22.2741 137.899 22.6074 137.399 22.6074C137.166 22.6074 136.949 22.5074 136.749 22.3074C136.583 22.0741 136.499 21.7574 136.499 21.3574C136.133 21.1907 135.633 21.2741 134.999 21.6074C134.399 21.9074 133.766 22.3574 133.099 22.9574C132.433 23.5241 131.799 24.1407 131.199 24.8074C130.599 25.4407 130.133 25.9907 129.799 26.4574C129.199 27.2907 128.899 28.2074 128.899 29.2074C128.899 29.6741 129.016 30.0574 129.249 30.3574C129.483 30.6574 129.833 30.8074 130.299 30.8074C130.733 30.8074 131.249 30.6741 131.849 30.4074C132.283 30.1741 132.683 29.9574 133.049 29.7574C133.449 29.5574 133.816 29.3741 134.149 29.2074C136.216 28.0407 137.383 27.4574 137.649 27.4574C137.749 27.4574 137.799 27.5074 137.799 27.6074C137.799 27.7074 137.716 27.8407 137.549 28.0074C137.216 28.3074 136.683 28.7241 135.949 29.2574C135.216 29.7907 134.433 30.2907 133.599 30.7574C132.766 31.2241 131.999 31.5741 131.299 31.8074C130.666 32.0074 130.116 32.1074 129.649 32.1074ZM126.249 38.6074C126.049 38.6074 125.949 38.5074 125.949 38.3074C125.949 38.1407 126.049 38.0574 126.249 38.0574C126.616 38.0574 127.066 37.9907 127.599 37.8574C128.133 37.7574 128.599 37.5741 128.999 37.3074C129.433 37.0741 129.649 36.7574 129.649 36.3574C129.649 36.0574 129.516 35.7907 129.249 35.5574C128.983 35.3574 128.699 35.0907 128.399 34.7574C128.133 34.4574 127.999 34.0407 127.999 33.5074C127.999 33.0741 128.199 32.6574 128.599 32.2574C129.033 31.8907 129.599 31.7074 130.299 31.7074C130.566 31.7074 130.699 31.7907 130.699 31.9574C130.233 32.0241 129.866 32.1574 129.599 32.3574C129.333 32.5907 129.199 32.8241 129.199 33.0574C129.199 33.5574 129.349 33.9407 129.649 34.2074C129.983 34.4741 130.299 34.7241 130.599 34.9574C130.899 35.2241 131.049 35.6241 131.049 36.1574C131.049 37.0907 130.566 37.7241 129.599 38.0574C128.633 38.4241 127.516 38.6074 126.249 38.6074ZM140.571 31.9574C139.271 31.9574 138.621 31.3741 138.621 30.2074C138.621 30.1407 138.621 30.0241 138.621 29.8574C138.655 29.6907 138.688 29.4907 138.721 29.2574C139.055 27.8907 139.721 26.5741 140.721 25.3074C141.755 24.0074 142.938 22.8741 144.271 21.9074C144.771 21.5074 145.571 21.3074 146.671 21.3074C147.305 21.3074 147.855 21.4074 148.321 21.6074C148.821 21.7741 149.171 22.0407 149.371 22.4074C149.571 22.7407 149.671 23.1241 149.671 23.5574C149.671 23.6241 149.655 23.7241 149.621 23.8574C149.621 23.9907 149.605 24.1407 149.571 24.3074C149.638 24.2741 149.738 24.2574 149.871 24.2574C150.038 24.2574 150.238 24.2407 150.471 24.2074C150.705 24.1741 150.921 24.1407 151.121 24.1074C151.355 24.0741 151.588 24.0574 151.821 24.0574H152.021C152.388 24.0574 152.421 24.2074 152.121 24.5074C151.855 24.7741 151.488 24.9407 151.021 25.0074L149.321 25.2074C148.988 26.1407 148.405 27.0741 147.571 28.0074C146.771 28.9407 145.871 29.7574 144.871 30.4574C143.905 31.1241 142.988 31.5574 142.121 31.7574C141.621 31.8907 141.105 31.9574 140.571 31.9574ZM146.971 24.5074C147.171 24.5074 147.405 24.5074 147.671 24.5074C147.971 24.4741 148.305 24.4407 148.671 24.4074C148.705 24.3407 148.721 24.1907 148.721 23.9574C148.721 23.3574 148.471 22.9407 147.971 22.7074C147.705 22.5407 147.371 22.4574 146.971 22.4574C146.471 22.4574 145.955 22.6241 145.421 22.9574C144.921 23.2574 144.388 23.6574 143.821 24.1574C144.521 24.3907 145.571 24.5074 146.971 24.5074ZM142.071 30.2074C142.405 30.2074 142.871 30.0574 143.471 29.7574C144.105 29.4241 144.755 28.9907 145.421 28.4574C146.088 27.9241 146.688 27.3574 147.221 26.7574C147.388 26.5907 147.555 26.3907 147.721 26.1574C147.888 25.8907 148.071 25.6241 148.271 25.3574L147.071 25.5074C145.205 25.7741 143.538 25.9241 142.071 25.9574C141.338 27.1574 140.888 28.1574 140.721 28.9574C140.688 29.3907 140.805 29.7074 141.071 29.9074C141.338 30.1074 141.671 30.2074 142.071 30.2074ZM147.621 18.9074C147.455 18.9074 147.371 18.8574 147.371 18.7574C147.371 18.6907 147.405 18.6241 147.471 18.5574C148.038 17.9907 148.688 17.3574 149.421 16.6574C150.155 15.9241 150.821 15.2907 151.421 14.7574C151.555 14.6241 151.655 14.5574 151.721 14.5574C151.821 14.5241 151.938 14.5074 152.071 14.5074C152.305 14.5074 152.505 14.6741 152.671 15.0074C152.871 15.3407 152.905 15.5574 152.771 15.6574C152.205 16.0907 151.621 16.5074 151.021 16.9074C150.421 17.3074 149.821 17.7074 149.221 18.1074C148.388 18.6407 147.855 18.9074 147.621 18.9074ZM155.888 20.1574C155.455 20.1574 155.238 20.0574 155.238 19.8574C155.238 19.6907 155.355 19.4574 155.588 19.1574C155.855 18.8241 156.155 18.5407 156.488 18.3074C157.221 17.8407 157.788 17.4407 158.188 17.1074C158.621 16.7741 159.138 16.2074 159.738 15.4074C159.771 15.4741 159.788 15.6074 159.788 15.8074C159.788 16.2407 159.605 16.7741 159.238 17.4074C158.905 18.0074 158.521 18.5574 158.088 19.0574C157.655 19.5574 157.271 19.8741 156.938 20.0074C156.638 20.1074 156.288 20.1574 155.888 20.1574ZM151.438 32.4074C151.171 32.4074 150.921 32.3074 150.688 32.1074C150.455 31.9074 150.338 31.6407 150.338 31.3074C150.338 30.6074 150.821 29.3241 151.788 27.4574L152.338 26.3574C152.405 26.2907 152.488 26.1241 152.588 25.8574C152.721 25.5907 152.905 25.2407 153.138 24.8074C153.371 24.3407 153.555 23.9241 153.688 23.5574C153.821 23.1907 153.921 22.8407 153.988 22.5074C153.988 22.4741 154.055 22.4074 154.188 22.3074C154.321 22.2074 154.455 22.1241 154.588 22.0574L154.888 22.0074C155.155 22.0074 155.371 22.0574 155.538 22.1574C155.738 22.2574 155.805 22.3907 155.738 22.5574C155.505 23.0574 155.305 23.4907 155.138 23.8574C154.971 24.2241 154.838 24.5407 154.738 24.8074H154.688C154.321 25.6407 154.005 26.4407 153.738 27.2074C153.505 27.9407 153.405 28.6407 153.438 29.3074L153.488 30.6574C153.455 30.9907 153.338 31.2741 153.138 31.5074C153.005 31.6074 152.821 31.7241 152.588 31.8574C152.355 32.0241 152.055 32.1907 151.688 32.3574C151.655 32.3907 151.571 32.4074 151.438 32.4074ZM154.907 33.2074C154.373 33.2074 153.907 33.1574 153.507 33.0574C153.14 32.9574 152.957 32.8241 152.957 32.6574C152.957 32.3907 153.223 32.2407 153.757 32.2074C154.257 32.1741 154.59 32.1241 154.757 32.0574C155.057 31.9907 155.407 31.9407 155.807 31.9074C156.173 31.8407 156.473 31.7907 156.707 31.7574C158.307 31.2907 159.107 30.5741 159.107 29.6074C159.107 28.9407 158.757 28.0907 158.057 27.0574C157.623 26.4241 157.407 25.7241 157.407 24.9574C157.407 24.0241 157.69 23.1074 158.257 22.2074C158.857 21.3074 159.59 20.5241 160.457 19.8574C161.357 19.1574 162.257 18.6907 163.157 18.4574C163.557 18.3574 163.973 18.3074 164.407 18.3074C165.107 18.3074 165.607 18.4741 165.907 18.8074C166.107 19.0074 166.207 19.4407 166.207 20.1074C166.207 20.6074 166.123 21.1241 165.957 21.6574C165.79 22.1574 165.557 22.5741 165.257 22.9074C165.09 23.0741 164.957 23.1574 164.857 23.1574C164.69 23.1574 164.607 22.9241 164.607 22.4574L164.657 21.4574C164.69 21.1907 164.707 20.9574 164.707 20.7574C164.74 20.5574 164.757 20.3907 164.757 20.2574C164.757 19.6907 164.64 19.3574 164.407 19.2574C164.14 19.1907 163.957 19.1574 163.857 19.1574C163.157 19.1574 162.407 19.4741 161.607 20.1074C160.807 20.7407 160.157 21.4741 159.657 22.3074C159.457 22.6074 159.357 22.9741 159.357 23.4074C159.357 23.9407 159.49 24.5741 159.757 25.3074C160.057 26.0074 160.273 26.5241 160.407 26.8574C160.74 27.5907 160.99 28.2241 161.157 28.7574C161.357 29.2907 161.457 29.7574 161.457 30.1574C161.457 30.3574 161.44 30.5074 161.407 30.6074C161.573 30.5407 161.973 30.4407 162.607 30.3074C163.173 30.1741 163.657 30.1074 164.057 30.1074C164.29 30.1074 164.407 30.1574 164.407 30.2574C164.407 30.2907 164.307 30.4074 164.107 30.6074C164.007 30.7074 163.69 30.8741 163.157 31.1074C162.657 31.3074 162.057 31.5241 161.357 31.7574C160.69 31.9907 160.023 32.2074 159.357 32.4074C158.69 32.6074 158.123 32.7574 157.657 32.8574C156.857 33.0907 155.94 33.2074 154.907 33.2074ZM223.166 34.1574C222.166 34.1574 221.349 33.6741 220.716 32.7074C220.116 31.7741 219.883 30.6574 220.016 29.3574C220.183 27.7574 220.566 25.8741 221.166 23.7074C221.799 21.5074 222.566 19.2074 223.466 16.8074C224.399 14.3741 225.383 12.0241 226.416 9.75739C225.983 10.3574 225.449 11.0907 224.816 11.9574C224.216 12.7907 223.533 13.7574 222.766 14.8574L221.866 16.1574C221.099 17.2574 220.399 18.2407 219.766 19.1074C219.133 19.9741 218.566 20.7407 218.066 21.4074C217.999 21.4741 217.849 21.6574 217.616 21.9574C217.416 22.2241 217.133 22.5907 216.766 23.0574C216.399 23.5241 215.999 24.0074 215.566 24.5074C215.166 24.9741 214.749 25.4407 214.316 25.9074C212.316 28.1407 210.966 29.2574 210.266 29.2574C209.266 29.2907 208.516 28.8407 208.016 27.9074C207.516 26.9741 207.266 25.6907 207.266 24.0574C207.266 23.3907 207.316 22.6574 207.416 21.8574C207.683 19.3241 208.383 16.0407 209.516 12.0074L210.666 7.90739C210.833 7.34072 210.949 6.82406 211.016 6.35739C211.083 5.89072 211.133 5.45739 211.166 5.05739C211.166 4.62406 211.299 4.32406 211.566 4.15739C211.866 3.95739 212.233 3.85739 212.666 3.85739C213.133 3.85739 213.549 3.95739 213.916 4.15739C214.316 4.35739 214.499 4.57406 214.466 4.80739C214.366 5.44072 214.233 6.09072 214.066 6.75739C213.899 7.42406 213.699 8.12406 213.466 8.85739C213.399 9.12406 213.266 9.47406 213.066 9.90739C212.899 10.3407 212.683 10.8407 212.416 11.4074L211.816 12.7574C211.083 14.3907 210.499 15.9241 210.066 17.3574C209.633 18.7907 209.333 20.2574 209.166 21.7574C209.133 21.8907 209.116 22.0741 209.116 22.3074C209.116 22.5074 209.116 22.7407 209.116 23.0074C209.116 24.0074 209.283 24.7241 209.616 25.1574C209.983 25.5574 210.549 25.7741 211.316 25.8074C211.649 25.8074 212.083 25.6241 212.616 25.2574C213.183 24.8907 213.766 24.4407 214.366 23.9074C214.966 23.3741 215.533 22.8241 216.066 22.2574C216.633 21.6574 217.083 21.1407 217.416 20.7074C219.416 18.1741 221.249 15.7241 222.916 13.3574C224.616 10.9574 226.049 8.72406 227.216 6.65739C228.416 4.59072 229.249 2.79072 229.716 1.25739C229.883 0.75739 230.283 0.507389 230.916 0.507389C231.416 0.507389 231.866 0.674055 232.266 1.00739C232.666 1.34072 232.766 1.70739 232.566 2.10739L231.716 3.75739C230.816 5.52406 229.949 7.20739 229.116 8.80739C228.316 10.3741 227.599 11.8907 226.966 13.3574L226.916 13.3074C225.549 16.4407 224.466 19.3241 223.666 21.9574C222.899 24.5574 222.399 26.9241 222.166 29.0574C222.099 30.0241 222.216 30.8741 222.516 31.6074C222.849 32.3407 223.333 32.7074 223.966 32.7074C224.799 32.7074 225.683 32.1074 226.616 30.9074C226.949 30.4741 227.249 30.3074 227.516 30.4074C227.616 30.5074 227.666 30.5907 227.666 30.6574C227.666 30.8241 227.599 30.9741 227.466 31.1074C226.766 32.1407 226.033 32.9074 225.266 33.4074C224.533 33.9074 223.833 34.1574 223.166 34.1574ZM182.016 36.9574C179.816 36.9574 178.066 36.2407 176.766 34.8074C175.466 33.4074 174.816 31.4407 174.816 28.9074C174.816 25.4074 176.083 21.3741 178.616 16.8074C180.349 13.6741 182.266 11.3574 184.366 9.85739C186.499 8.32406 188.533 7.55739 190.466 7.55739C192.166 7.55739 193.566 8.07406 194.666 9.10739C195.799 10.1407 196.366 11.4574 196.366 13.0574C196.366 14.2574 196.016 15.5074 195.316 16.8074C194.649 18.1074 193.616 19.4074 192.216 20.7074C192.049 20.8741 191.883 20.9574 191.716 20.9574C191.549 20.9574 191.466 20.8574 191.466 20.6574C191.466 20.4574 191.599 20.2241 191.866 19.9574C192.866 18.9241 193.616 17.8907 194.116 16.8574C194.616 15.7907 194.866 14.7907 194.866 13.8574C194.866 12.5241 194.433 11.4407 193.566 10.6074C192.699 9.74072 191.599 9.30739 190.266 9.30739C188.666 9.30739 186.983 9.97406 185.216 11.3074C183.483 12.6074 181.849 14.6407 180.316 17.4074C177.849 21.9741 176.616 25.8574 176.616 29.0574C176.616 31.0907 177.099 32.6741 178.066 33.8074C179.066 34.9407 180.433 35.5074 182.166 35.5074C183.733 35.5074 185.483 35.0407 187.416 34.1074C189.349 33.1741 191.399 31.7574 193.566 29.8574C196.566 27.1907 199.316 24.0407 201.816 20.4074C203.083 18.5741 204.049 17.1741 204.716 16.2074C205.383 15.2407 205.749 14.7074 205.816 14.6074C206.349 13.8741 206.916 13.0907 207.516 12.2574C208.116 11.3907 208.749 10.4574 209.416 9.45739C209.516 9.29072 209.616 9.30739 209.716 9.50739C209.883 9.77406 209.899 9.99072 209.766 10.1574C208.999 11.2907 208.133 12.6574 207.166 14.2574C206.233 15.8241 205.166 17.5907 203.966 19.5574L203.066 21.0074H203.116C200.449 25.1407 197.466 28.5907 194.166 31.3574C191.966 33.2241 189.816 34.6241 187.716 35.5574C185.649 36.4907 183.749 36.9574 182.016 36.9574ZM236.226 32.4574C236.159 32.4574 236.092 32.4407 236.026 32.4074C235.959 32.4074 235.892 32.3907 235.826 32.3574C235.359 32.1241 235.059 31.7907 234.926 31.3574C234.792 30.9241 234.759 30.3741 234.826 29.7074C234.892 29.4407 234.959 28.9741 235.026 28.3074C235.126 27.6407 235.242 27.1074 235.376 26.7074L232.826 29.1574L231.426 30.5074C230.459 31.4741 229.659 31.9574 229.026 31.9574C228.759 31.9574 228.542 31.8574 228.376 31.6574C228.076 31.2907 227.926 30.8407 227.926 30.3074C227.926 29.6074 228.109 28.8574 228.476 28.0574C228.842 27.2574 229.276 26.4907 229.776 25.7574C230.276 24.9907 230.726 24.3574 231.126 23.8574C232.126 22.6241 233.092 21.6574 234.026 20.9574C234.992 20.2574 235.992 19.9074 237.026 19.9074C237.592 19.9074 238.142 20.0074 238.676 20.2074C239.242 20.4074 239.759 20.7407 240.226 21.2074L240.276 21.2574C240.276 21.3574 240.192 21.4574 240.026 21.5574C239.959 21.6241 239.892 21.6741 239.826 21.7074C239.792 21.7407 239.759 21.7741 239.726 21.8074C239.326 22.2074 238.876 22.8741 238.376 23.8074C237.876 24.7407 237.442 25.7241 237.076 26.7574C236.709 27.7574 236.526 28.6241 236.526 29.3574C236.526 30.0241 236.692 30.4741 237.026 30.7074C237.192 30.8074 237.376 30.8574 237.576 30.8574C238.009 30.8574 238.609 30.5907 239.376 30.0574C239.409 30.0241 239.476 29.9741 239.576 29.9074C239.709 29.8074 239.892 29.6741 240.126 29.5074C240.392 29.3074 240.609 29.2074 240.776 29.2074C240.942 29.2074 241.026 29.2741 241.026 29.4074C241.026 29.6074 240.892 29.8407 240.626 30.1074C240.426 30.2741 240.192 30.4574 239.926 30.6574C239.692 30.8574 239.409 31.0574 239.076 31.2574C238.576 31.6241 238.059 31.9074 237.526 32.1074C236.992 32.3407 236.559 32.4574 236.226 32.4574ZM230.576 29.2574C231.276 29.2574 232.576 28.2241 234.476 26.1574C234.976 25.5907 235.426 25.0574 235.826 24.5574C236.226 24.0241 236.592 23.5074 236.926 23.0074C237.526 22.0407 237.726 21.3741 237.526 21.0074C237.426 20.8074 237.226 20.7074 236.926 20.7074C236.559 20.7074 236.059 20.9074 235.426 21.3074C234.792 21.6741 234.142 22.1574 233.476 22.7574C232.842 23.3574 232.259 23.9574 231.726 24.5574C231.359 25.0241 230.992 25.6741 230.626 26.5074C230.259 27.3407 230.076 28.0241 230.076 28.5574C230.076 29.0241 230.242 29.2574 230.576 29.2574ZM242.925 32.1574C242.492 32.1574 242.275 31.7741 242.275 31.0074C242.275 30.3741 242.425 29.7574 242.725 29.1574C243.492 27.6907 244.192 26.2407 244.825 24.8074C245.259 23.9407 245.659 23.1074 246.025 22.3074C246.425 21.5074 246.792 20.7741 247.125 20.1074C247.325 19.9074 247.525 19.8074 247.725 19.8074C248.159 19.8074 248.292 20.0074 248.125 20.4074C248.059 20.6407 247.959 20.9241 247.825 21.2574C247.725 21.5574 247.592 21.9241 247.425 22.3574C246.892 23.7574 246.575 24.7407 246.475 25.3074C247.409 24.4741 248.359 23.7074 249.325 23.0074C250.325 22.2741 251.259 21.6741 252.125 21.2074C252.992 20.7407 253.725 20.5074 254.325 20.5074C254.859 20.5074 255.125 20.7241 255.125 21.1574C255.125 21.5241 254.959 21.9241 254.625 22.3574C254.292 22.7574 253.959 22.9574 253.625 22.9574C253.459 22.9574 253.325 22.9074 253.225 22.8074C253.125 22.7741 252.925 22.7574 252.625 22.7574C251.559 22.7574 250.442 23.2741 249.275 24.3074C248.042 25.3407 246.925 26.5907 245.925 28.0574C244.925 29.4907 244.192 30.7407 243.725 31.8074C243.492 32.0407 243.225 32.1574 242.925 32.1574ZM260.689 32.4574C260.622 32.4574 260.555 32.4407 260.489 32.4074C260.422 32.4074 260.355 32.3907 260.289 32.3574C259.822 32.1241 259.522 31.7907 259.389 31.3574C259.255 30.9241 259.222 30.3741 259.289 29.7074C259.355 29.4407 259.422 28.9741 259.489 28.3074C259.589 27.6407 259.705 27.1074 259.839 26.7074L257.289 29.1574L255.889 30.5074C254.922 31.4741 254.122 31.9574 253.489 31.9574C253.222 31.9574 253.005 31.8574 252.839 31.6574C252.539 31.2907 252.389 30.8407 252.389 30.3074C252.389 29.6074 252.572 28.8574 252.939 28.0574C253.305 27.2574 253.739 26.4907 254.239 25.7574C254.739 24.9907 255.189 24.3574 255.589 23.8574C256.589 22.6241 257.555 21.6574 258.489 20.9574C259.455 20.2574 260.455 19.9074 261.489 19.9074C262.055 19.9074 262.605 20.0074 263.139 20.2074C263.705 20.4074 264.222 20.7407 264.689 21.2074L264.739 21.2574C264.739 21.3574 264.655 21.4574 264.489 21.5574C264.422 21.6241 264.355 21.6741 264.289 21.7074C264.255 21.7407 264.222 21.7741 264.189 21.8074C263.789 22.2074 263.339 22.8741 262.839 23.8074C262.339 24.7407 261.905 25.7241 261.539 26.7574C261.172 27.7574 260.989 28.6241 260.989 29.3574C260.989 30.0241 261.155 30.4741 261.489 30.7074C261.655 30.8074 261.839 30.8574 262.039 30.8574C262.472 30.8574 263.072 30.5907 263.839 30.0574C263.872 30.0241 263.939 29.9741 264.039 29.9074C264.172 29.8074 264.355 29.6741 264.589 29.5074C264.855 29.3074 265.072 29.2074 265.239 29.2074C265.405 29.2074 265.489 29.2741 265.489 29.4074C265.489 29.6074 265.355 29.8407 265.089 30.1074C264.889 30.2741 264.655 30.4574 264.389 30.6574C264.155 30.8574 263.872 31.0574 263.539 31.2574C263.039 31.6241 262.522 31.9074 261.989 32.1074C261.455 32.3407 261.022 32.4574 260.689 32.4574ZM255.039 29.2574C255.739 29.2574 257.039 28.2241 258.939 26.1574C259.439 25.5907 259.889 25.0574 260.289 24.5574C260.689 24.0241 261.055 23.5074 261.389 23.0074C261.989 22.0407 262.189 21.3741 261.989 21.0074C261.889 20.8074 261.689 20.7074 261.389 20.7074C261.022 20.7074 260.522 20.9074 259.889 21.3074C259.255 21.6741 258.605 22.1574 257.939 22.7574C257.305 23.3574 256.722 23.9574 256.189 24.5574C255.822 25.0241 255.455 25.6741 255.089 26.5074C254.722 27.3407 254.539 28.0241 254.539 28.5574C254.539 29.0241 254.705 29.2574 255.039 29.2574ZM266.808 31.9074C266.208 31.9074 265.908 31.6741 265.908 31.2074C265.908 30.9074 266.008 30.5241 266.208 30.0574C266.442 29.5907 266.675 29.1407 266.908 28.7074C267.542 27.5741 268.125 26.4741 268.658 25.4074C269.192 24.3407 269.708 23.2074 270.208 22.0074C270.442 21.4741 270.792 21.2074 271.258 21.2074C271.758 21.2074 271.908 21.5074 271.708 22.1074C271.508 22.6074 271.308 23.0574 271.108 23.4574C270.175 25.3574 269.708 26.6407 269.708 27.3074C269.708 27.6074 269.808 27.7907 270.008 27.8574C270.475 27.4907 270.825 27.2241 271.058 27.0574C271.292 26.8574 271.425 26.7407 271.458 26.7074C271.925 26.3407 272.442 25.9241 273.008 25.4574C273.608 24.9574 274.258 24.3907 274.958 23.7574C276.058 22.7574 276.975 22.2574 277.708 22.2574C278.608 22.2574 278.992 23.0741 278.858 24.7074C278.825 25.3407 278.825 25.9574 278.858 26.5574C278.892 26.6907 278.908 26.8907 278.908 27.1574C278.908 27.3907 278.908 27.6741 278.908 28.0074C278.908 28.3407 279.108 28.5074 279.508 28.5074C279.975 28.5074 280.408 28.3741 280.808 28.1074L281.908 27.3574L283.008 26.6574C283.075 26.6241 283.192 26.6074 283.358 26.6074C283.558 26.6074 283.558 26.7574 283.358 27.0574C281.258 29.6574 279.525 30.9574 278.158 30.9574C277.892 30.9574 277.625 30.9074 277.358 30.8074C277.125 30.7074 276.958 30.4241 276.858 29.9574C276.758 29.4574 276.692 28.9241 276.658 28.3574C276.658 27.7907 276.658 27.3574 276.658 27.0574L276.708 25.4074C276.708 24.7074 276.525 24.3574 276.158 24.3574C275.292 24.3574 273.158 26.1407 269.758 29.7074C269.492 30.0407 269.075 30.4907 268.508 31.0574C267.942 31.6241 267.375 31.9074 266.808 31.9074ZM283.103 34.0574C282.403 34.0574 282.103 33.7074 282.203 33.0074C282.403 31.7407 282.753 30.4741 283.253 29.2074C283.519 28.5407 283.853 27.7741 284.253 26.9074C284.686 26.0407 285.186 25.0741 285.753 24.0074C286.053 23.4407 286.303 22.9407 286.503 22.5074C286.736 22.0741 286.919 21.7241 287.053 21.4574C287.286 20.9907 287.519 20.4907 287.753 19.9574C288.019 19.4241 288.286 18.8407 288.553 18.2074C289.819 15.4407 290.903 13.2741 291.803 11.7074C292.736 10.1074 293.736 8.97406 294.803 8.30739C294.869 8.24072 295.053 8.24072 295.353 8.30739C295.653 8.34072 295.936 8.40739 296.203 8.50739C296.503 8.60739 296.686 8.72406 296.753 8.85739C296.853 9.09072 296.903 9.42406 296.903 9.85739C296.903 11.1907 296.286 12.7907 295.053 14.6574C294.386 15.6574 293.536 16.7574 292.503 17.9574C291.503 19.1241 290.319 20.3907 288.953 21.7574L288.053 23.2074C287.053 24.8074 286.269 26.1741 285.703 27.3074C285.169 28.4407 284.969 29.4407 285.103 30.3074C285.169 30.5074 285.253 30.6074 285.353 30.6074C285.453 30.6074 285.619 30.5241 285.853 30.3574C286.086 30.1907 286.319 29.9907 286.553 29.7574C286.819 29.5241 287.069 29.2407 287.303 28.9074C287.469 28.7407 287.603 28.5574 287.703 28.3574C287.836 28.1574 287.969 27.9741 288.103 27.8074C288.303 27.4407 288.503 27.1407 288.703 26.9074C289.336 25.8407 289.869 25.0907 290.303 24.6574C291.036 23.9241 291.686 23.5574 292.253 23.5574C292.919 23.5574 293.503 23.9241 294.003 24.6574C294.536 25.3574 295.103 26.3741 295.703 27.7074C296.136 28.7074 296.536 29.4741 296.903 30.0074C297.269 30.5074 297.619 30.7574 297.953 30.7574C298.286 30.7574 298.669 30.5574 299.103 30.1574C299.503 29.7907 299.853 29.5907 300.153 29.5574C300.353 29.7907 300.336 30.0907 300.103 30.4574C299.869 30.7907 299.519 31.1074 299.053 31.4074C298.619 31.7407 298.186 32.0074 297.753 32.2074C297.319 32.4074 296.986 32.4741 296.753 32.4074C295.819 32.1407 295.086 31.6741 294.553 31.0074C294.053 30.3074 293.553 29.4074 293.053 28.3074C292.886 27.9407 292.736 27.6241 292.603 27.3574C292.469 27.0574 292.336 26.8241 292.203 26.6574C291.969 26.3241 291.653 26.1574 291.253 26.1574C290.953 26.1574 290.603 26.3074 290.203 26.6074C289.803 26.9407 289.403 27.3407 289.003 27.8074C288.603 28.2407 288.219 28.7741 287.853 29.4074C287.619 29.7407 287.436 30.0074 287.303 30.2074C287.203 30.3741 287.119 30.4907 287.053 30.5574C286.886 30.7907 286.619 31.1241 286.253 31.5574C285.919 32.0241 285.519 32.5907 285.053 33.2574C284.886 33.4574 284.619 33.6407 284.253 33.8074C283.919 33.9741 283.586 34.0574 283.253 34.0574H283.103ZM289.203 19.7074C289.303 19.7741 289.553 19.6241 289.953 19.2574C290.353 18.8574 290.803 18.3574 291.303 17.7574C291.836 17.1241 292.353 16.4741 292.853 15.8074C293.386 15.1074 293.803 14.4907 294.103 13.9574C295.136 12.1907 295.653 11.0241 295.653 10.4574C295.653 10.2241 295.569 10.0574 295.403 9.95739C295.069 9.69072 294.619 9.84072 294.053 10.4074C293.486 10.9407 292.919 11.6574 292.353 12.5574C291.786 13.4241 291.303 14.2907 290.903 15.1574C290.669 15.6907 290.419 16.2907 290.153 16.9574C289.919 17.6241 289.719 18.2241 289.553 18.7574C289.386 19.2574 289.269 19.5741 289.203 19.7074ZM304.076 31.6574C303.376 31.6574 302.76 31.4741 302.226 31.1074C301.36 30.4407 300.926 29.4407 300.926 28.1074C300.926 26.7741 301.393 25.3574 302.326 23.8574C303.26 22.3574 304.676 20.9741 306.576 19.7074C306.91 19.4741 307.36 19.3574 307.926 19.3574C308.66 19.3574 309.31 19.5574 309.876 19.9574C310.476 20.3574 310.71 20.8741 310.576 21.5074C310.343 22.5407 309.826 23.4574 309.026 24.2574C308.26 25.0574 307.343 25.7741 306.276 26.4074C305.243 27.0074 304.176 27.5907 303.076 28.1574C303.043 28.2574 303.01 28.3574 302.976 28.4574C302.976 28.5574 302.976 28.6574 302.976 28.7574C302.976 29.2241 303.126 29.6407 303.426 30.0074C303.76 30.3407 304.21 30.5074 304.776 30.5074C305.21 30.5074 305.576 30.4407 305.876 30.3074C306.41 30.1074 306.843 29.9241 307.176 29.7574C307.543 29.5907 307.96 29.3407 308.426 29.0074C308.893 28.6741 309.526 28.1741 310.326 27.5074C310.693 27.2407 310.91 27.1074 310.976 27.1074C311.176 27.1074 311.243 27.2574 311.176 27.5574C310.843 28.0907 310.26 28.6741 309.426 29.3074C308.626 29.9407 307.726 30.4907 306.726 30.9574C305.76 31.4241 304.876 31.6574 304.076 31.6574ZM303.376 26.8074C303.643 26.8074 304.193 26.5407 305.026 26.0074C305.86 25.4741 306.643 24.8907 307.376 24.2574C308.643 23.0907 309.276 22.1907 309.276 21.5574C309.276 21.3907 309.226 21.2407 309.126 21.1074C309.026 20.9407 308.876 20.8574 308.676 20.8574C308.043 20.8574 306.976 21.6074 305.476 23.1074C304.443 24.1074 303.743 25.3407 303.376 26.8074ZM311.388 31.9074C310.788 31.9074 310.488 31.6741 310.488 31.2074C310.488 30.9074 310.588 30.5241 310.788 30.0574C311.022 29.5907 311.255 29.1407 311.488 28.7074C312.122 27.5741 312.705 26.4741 313.238 25.4074C313.772 24.3407 314.288 23.2074 314.788 22.0074C315.022 21.4741 315.372 21.2074 315.838 21.2074C316.338 21.2074 316.488 21.5074 316.288 22.1074C316.088 22.6074 315.888 23.0574 315.688 23.4574C314.755 25.3574 314.288 26.6407 314.288 27.3074C314.288 27.6074 314.388 27.7907 314.588 27.8574C315.055 27.4907 315.405 27.2241 315.638 27.0574C315.872 26.8574 316.005 26.7407 316.038 26.7074C316.505 26.3407 317.022 25.9241 317.588 25.4574C318.188 24.9574 318.838 24.3907 319.538 23.7574C320.638 22.7574 321.555 22.2574 322.288 22.2574C323.188 22.2574 323.572 23.0741 323.438 24.7074C323.405 25.3407 323.405 25.9574 323.438 26.5574C323.472 26.6907 323.488 26.8907 323.488 27.1574C323.488 27.3907 323.488 27.6741 323.488 28.0074C323.488 28.3407 323.688 28.5074 324.088 28.5074C324.555 28.5074 324.988 28.3741 325.388 28.1074L326.488 27.3574L327.588 26.6574C327.655 26.6241 327.772 26.6074 327.938 26.6074C328.138 26.6074 328.138 26.7574 327.938 27.0574C325.838 29.6574 324.105 30.9574 322.738 30.9574C322.472 30.9574 322.205 30.9074 321.938 30.8074C321.705 30.7074 321.538 30.4241 321.438 29.9574C321.338 29.4574 321.272 28.9241 321.238 28.3574C321.238 27.7907 321.238 27.3574 321.238 27.0574L321.288 25.4074C321.288 24.7074 321.105 24.3574 320.738 24.3574C319.872 24.3574 317.738 26.1407 314.338 29.7074C314.072 30.0407 313.655 30.4907 313.088 31.0574C312.522 31.6241 311.955 31.9074 311.388 31.9074ZM326.733 33.2074C326.199 33.2074 325.733 33.1574 325.333 33.0574C324.966 32.9574 324.783 32.8241 324.783 32.6574C324.783 32.3907 325.049 32.2407 325.583 32.2074C326.083 32.1741 326.416 32.1241 326.583 32.0574C326.883 31.9907 327.233 31.9407 327.633 31.9074C327.999 31.8407 328.299 31.7907 328.533 31.7574C330.133 31.2907 330.933 30.5741 330.933 29.6074C330.933 28.9407 330.583 28.0907 329.883 27.0574C329.449 26.4241 329.233 25.7241 329.233 24.9574C329.233 24.0241 329.516 23.1074 330.083 22.2074C330.683 21.3074 331.416 20.5241 332.283 19.8574C333.183 19.1574 334.083 18.6907 334.983 18.4574C335.383 18.3574 335.799 18.3074 336.233 18.3074C336.933 18.3074 337.433 18.4741 337.733 18.8074C337.933 19.0074 338.033 19.4407 338.033 20.1074C338.033 20.6074 337.949 21.1241 337.783 21.6574C337.616 22.1574 337.383 22.5741 337.083 22.9074C336.916 23.0741 336.783 23.1574 336.683 23.1574C336.516 23.1574 336.433 22.9241 336.433 22.4574L336.483 21.4574C336.516 21.1907 336.533 20.9574 336.533 20.7574C336.566 20.5574 336.583 20.3907 336.583 20.2574C336.583 19.6907 336.466 19.3574 336.233 19.2574C335.966 19.1907 335.783 19.1574 335.683 19.1574C334.983 19.1574 334.233 19.4741 333.433 20.1074C332.633 20.7407 331.983 21.4741 331.483 22.3074C331.283 22.6074 331.183 22.9741 331.183 23.4074C331.183 23.9407 331.316 24.5741 331.583 25.3074C331.883 26.0074 332.099 26.5241 332.233 26.8574C332.566 27.5907 332.816 28.2241 332.983 28.7574C333.183 29.2907 333.283 29.7574 333.283 30.1574C333.283 30.3574 333.266 30.5074 333.233 30.6074C333.399 30.5407 333.799 30.4407 334.433 30.3074C334.999 30.1741 335.483 30.1074 335.883 30.1074C336.116 30.1074 336.233 30.1574 336.233 30.2574C336.233 30.2907 336.133 30.4074 335.933 30.6074C335.833 30.7074 335.516 30.8741 334.983 31.1074C334.483 31.3074 333.883 31.5241 333.183 31.7574C332.516 31.9907 331.849 32.2074 331.183 32.4074C330.516 32.6074 329.949 32.7574 329.483 32.8574C328.683 33.0907 327.766 33.2074 326.733 33.2074ZM340.502 31.6574C339.802 31.6574 339.185 31.4741 338.652 31.1074C337.785 30.4407 337.352 29.4407 337.352 28.1074C337.352 26.7741 337.819 25.3574 338.752 23.8574C339.685 22.3574 341.102 20.9741 343.002 19.7074C343.335 19.4741 343.785 19.3574 344.352 19.3574C345.085 19.3574 345.735 19.5574 346.302 19.9574C346.902 20.3574 347.135 20.8741 347.002 21.5074C346.769 22.5407 346.252 23.4574 345.452 24.2574C344.685 25.0574 343.769 25.7741 342.702 26.4074C341.669 27.0074 340.602 27.5907 339.502 28.1574C339.469 28.2574 339.435 28.3574 339.402 28.4574C339.402 28.5574 339.402 28.6574 339.402 28.7574C339.402 29.2241 339.552 29.6407 339.852 30.0074C340.185 30.3407 340.635 30.5074 341.202 30.5074C341.635 30.5074 342.002 30.4407 342.302 30.3074C342.835 30.1074 343.269 29.9241 343.602 29.7574C343.969 29.5907 344.385 29.3407 344.852 29.0074C345.319 28.6741 345.952 28.1741 346.752 27.5074C347.119 27.2407 347.335 27.1074 347.402 27.1074C347.602 27.1074 347.669 27.2574 347.602 27.5574C347.269 28.0907 346.685 28.6741 345.852 29.3074C345.052 29.9407 344.152 30.4907 343.152 30.9574C342.185 31.4241 341.302 31.6574 340.502 31.6574ZM339.802 26.8074C340.069 26.8074 340.619 26.5407 341.452 26.0074C342.285 25.4741 343.069 24.8907 343.802 24.2574C345.069 23.0907 345.702 22.1907 345.702 21.5574C345.702 21.3907 345.652 21.2407 345.552 21.1074C345.452 20.9407 345.302 20.8574 345.102 20.8574C344.469 20.8574 343.402 21.6074 341.902 23.1074C340.869 24.1074 340.169 25.3407 339.802 26.8074ZM346.264 33.2074C345.731 33.2074 345.264 33.1574 344.864 33.0574C344.497 32.9574 344.314 32.8241 344.314 32.6574C344.314 32.3907 344.581 32.2407 345.114 32.2074C345.614 32.1741 345.947 32.1241 346.114 32.0574C346.414 31.9907 346.764 31.9407 347.164 31.9074C347.531 31.8407 347.831 31.7907 348.064 31.7574C349.664 31.2907 350.464 30.5741 350.464 29.6074C350.464 28.9407 350.114 28.0907 349.414 27.0574C348.981 26.4241 348.764 25.7241 348.764 24.9574C348.764 24.0241 349.047 23.1074 349.614 22.2074C350.214 21.3074 350.947 20.5241 351.814 19.8574C352.714 19.1574 353.614 18.6907 354.514 18.4574C354.914 18.3574 355.331 18.3074 355.764 18.3074C356.464 18.3074 356.964 18.4741 357.264 18.8074C357.464 19.0074 357.564 19.4407 357.564 20.1074C357.564 20.6074 357.481 21.1241 357.314 21.6574C357.147 22.1574 356.914 22.5741 356.614 22.9074C356.447 23.0741 356.314 23.1574 356.214 23.1574C356.047 23.1574 355.964 22.9241 355.964 22.4574L356.014 21.4574C356.047 21.1907 356.064 20.9574 356.064 20.7574C356.097 20.5574 356.114 20.3907 356.114 20.2574C356.114 19.6907 355.997 19.3574 355.764 19.2574C355.497 19.1907 355.314 19.1574 355.214 19.1574C354.514 19.1574 353.764 19.4741 352.964 20.1074C352.164 20.7407 351.514 21.4741 351.014 22.3074C350.814 22.6074 350.714 22.9741 350.714 23.4074C350.714 23.9407 350.847 24.5741 351.114 25.3074C351.414 26.0074 351.631 26.5241 351.764 26.8574C352.097 27.5907 352.347 28.2241 352.514 28.7574C352.714 29.2907 352.814 29.7574 352.814 30.1574C352.814 30.3574 352.797 30.5074 352.764 30.6074C352.931 30.5407 353.331 30.4407 353.964 30.3074C354.531 30.1741 355.014 30.1074 355.414 30.1074C355.647 30.1074 355.764 30.1574 355.764 30.2574C355.764 30.2907 355.664 30.4074 355.464 30.6074C355.364 30.7074 355.047 30.8741 354.514 31.1074C354.014 31.3074 353.414 31.5241 352.714 31.7574C352.047 31.9907 351.381 32.2074 350.714 32.4074C350.047 32.6074 349.481 32.7574 349.014 32.8574C348.214 33.0907 347.297 33.2074 346.264 33.2074Z" fill="#0CA296"/>
</svg>
